<mxfile host="app.diagrams.net" agent="Mozilla/5.0 (Windows NT 10.0; Win64; x64) AppleWebKit/537.36 (KHTML, like Gecko) Chrome/130.0.0.0 Safari/537.36" version="24.8.4">
  <diagram id="C5RBs43oDa-KdzZeNtuy" name="Page-1">
    <mxGraphModel grid="1" page="1" gridSize="10" guides="1" tooltips="1" connect="1" arrows="1" fold="1" pageScale="1" pageWidth="827" pageHeight="1169" math="0" shadow="0">
      <root>
        <mxCell id="WIyWlLk6GJQsqaUBKTNV-0" />
        <mxCell id="WIyWlLk6GJQsqaUBKTNV-1" parent="WIyWlLk6GJQsqaUBKTNV-0" />
        <mxCell id="Fmh4cS3P_eQ8kJ_-uKX7-9" value="Profile" style="swimlane;fontStyle=0;align=center;verticalAlign=top;childLayout=stackLayout;horizontal=1;startSize=26;horizontalStack=0;resizeParent=1;resizeLast=0;collapsible=1;marginBottom=0;rounded=0;shadow=0;strokeWidth=1;" vertex="1" parent="WIyWlLk6GJQsqaUBKTNV-1">
          <mxGeometry x="-700" y="30" width="160" height="170" as="geometry">
            <mxRectangle x="550" y="140" width="160" height="26" as="alternateBounds" />
          </mxGeometry>
        </mxCell>
        <mxCell id="Fmh4cS3P_eQ8kJ_-uKX7-10" value="Email" style="text;align=left;verticalAlign=top;spacingLeft=4;spacingRight=4;overflow=hidden;rotatable=0;points=[[0,0.5],[1,0.5]];portConstraint=eastwest;" vertex="1" parent="Fmh4cS3P_eQ8kJ_-uKX7-9">
          <mxGeometry y="26" width="160" height="26" as="geometry" />
        </mxCell>
        <mxCell id="Fmh4cS3P_eQ8kJ_-uKX7-11" value="Password" style="text;align=left;verticalAlign=top;spacingLeft=4;spacingRight=4;overflow=hidden;rotatable=0;points=[[0,0.5],[1,0.5]];portConstraint=eastwest;rounded=0;shadow=0;html=0;" vertex="1" parent="Fmh4cS3P_eQ8kJ_-uKX7-9">
          <mxGeometry y="52" width="160" height="26" as="geometry" />
        </mxCell>
        <mxCell id="Fmh4cS3P_eQ8kJ_-uKX7-50" value="IsActive" style="text;align=left;verticalAlign=top;spacingLeft=4;spacingRight=4;overflow=hidden;rotatable=0;points=[[0,0.5],[1,0.5]];portConstraint=eastwest;rounded=0;shadow=0;html=0;" vertex="1" parent="Fmh4cS3P_eQ8kJ_-uKX7-9">
          <mxGeometry y="78" width="160" height="26" as="geometry" />
        </mxCell>
        <mxCell id="Fmh4cS3P_eQ8kJ_-uKX7-123" value="AreNotificationsMuted" style="text;align=left;verticalAlign=top;spacingLeft=4;spacingRight=4;overflow=hidden;rotatable=0;points=[[0,0.5],[1,0.5]];portConstraint=eastwest;rounded=0;shadow=0;html=0;" vertex="1" parent="Fmh4cS3P_eQ8kJ_-uKX7-9">
          <mxGeometry y="104" width="160" height="26" as="geometry" />
        </mxCell>
        <mxCell id="RkVGXi0ybTOS2C3Djq9N-0" value="IsVerified" style="text;align=left;verticalAlign=top;spacingLeft=4;spacingRight=4;overflow=hidden;rotatable=0;points=[[0,0.5],[1,0.5]];portConstraint=eastwest;rounded=0;shadow=0;html=0;" vertex="1" parent="Fmh4cS3P_eQ8kJ_-uKX7-9">
          <mxGeometry y="130" width="160" height="26" as="geometry" />
        </mxCell>
        <mxCell id="Fmh4cS3P_eQ8kJ_-uKX7-15" value="" style="line;html=1;strokeWidth=1;align=left;verticalAlign=middle;spacingTop=-1;spacingLeft=3;spacingRight=3;rotatable=0;labelPosition=right;points=[];portConstraint=eastwest;" vertex="1" parent="Fmh4cS3P_eQ8kJ_-uKX7-9">
          <mxGeometry y="156" width="160" height="8" as="geometry" />
        </mxCell>
        <mxCell id="Fmh4cS3P_eQ8kJ_-uKX7-84" style="edgeStyle=orthogonalEdgeStyle;rounded=0;orthogonalLoop=1;jettySize=auto;html=1;exitX=0.568;exitY=-0.011;exitDx=0;exitDy=0;exitPerimeter=0;" edge="1" parent="WIyWlLk6GJQsqaUBKTNV-1" source="Fmh4cS3P_eQ8kJ_-uKX7-20">
          <mxGeometry relative="1" as="geometry">
            <mxPoint x="-699.9655172413791" y="-410" as="sourcePoint" />
            <mxPoint x="-100" y="-790" as="targetPoint" />
            <Array as="points">
              <mxPoint x="-700" y="-403" />
              <mxPoint x="-700" y="-615" />
              <mxPoint x="-320" y="-615" />
              <mxPoint x="-320" y="-790" />
            </Array>
          </mxGeometry>
        </mxCell>
        <mxCell id="Fmh4cS3P_eQ8kJ_-uKX7-85" value="*" style="edgeLabel;html=1;align=center;verticalAlign=middle;resizable=0;points=[];" vertex="1" connectable="0" parent="Fmh4cS3P_eQ8kJ_-uKX7-84">
          <mxGeometry x="0.9224" y="2" relative="1" as="geometry">
            <mxPoint x="11" as="offset" />
          </mxGeometry>
        </mxCell>
        <mxCell id="Fmh4cS3P_eQ8kJ_-uKX7-86" value="1" style="edgeLabel;html=1;align=center;verticalAlign=middle;resizable=0;points=[];" vertex="1" connectable="0" parent="Fmh4cS3P_eQ8kJ_-uKX7-84">
          <mxGeometry x="-0.9539" relative="1" as="geometry">
            <mxPoint as="offset" />
          </mxGeometry>
        </mxCell>
        <mxCell id="Fmh4cS3P_eQ8kJ_-uKX7-87" value="Organized&lt;div&gt;Events&lt;/div&gt;" style="edgeLabel;html=1;align=center;verticalAlign=middle;resizable=0;points=[];" vertex="1" connectable="0" parent="Fmh4cS3P_eQ8kJ_-uKX7-84">
          <mxGeometry x="0.8491" y="-1" relative="1" as="geometry">
            <mxPoint x="-89" y="-1" as="offset" />
          </mxGeometry>
        </mxCell>
        <mxCell id="Fmh4cS3P_eQ8kJ_-uKX7-20" value="EventOrganizer (OD)" style="swimlane;fontStyle=0;align=center;verticalAlign=top;childLayout=stackLayout;horizontal=1;startSize=26;horizontalStack=0;resizeParent=1;resizeLast=0;collapsible=1;marginBottom=0;rounded=0;shadow=0;strokeWidth=1;" vertex="1" parent="WIyWlLk6GJQsqaUBKTNV-1">
          <mxGeometry x="-810" y="-400" width="190" height="290" as="geometry">
            <mxRectangle x="550" y="140" width="160" height="26" as="alternateBounds" />
          </mxGeometry>
        </mxCell>
        <mxCell id="Fmh4cS3P_eQ8kJ_-uKX7-21" value="Name" style="text;align=left;verticalAlign=top;spacingLeft=4;spacingRight=4;overflow=hidden;rotatable=0;points=[[0,0.5],[1,0.5]];portConstraint=eastwest;" vertex="1" parent="Fmh4cS3P_eQ8kJ_-uKX7-20">
          <mxGeometry y="26" width="190" height="26" as="geometry" />
        </mxCell>
        <mxCell id="Fmh4cS3P_eQ8kJ_-uKX7-22" value="Surname" style="text;align=left;verticalAlign=top;spacingLeft=4;spacingRight=4;overflow=hidden;rotatable=0;points=[[0,0.5],[1,0.5]];portConstraint=eastwest;rounded=0;shadow=0;html=0;" vertex="1" parent="Fmh4cS3P_eQ8kJ_-uKX7-20">
          <mxGeometry y="52" width="190" height="26" as="geometry" />
        </mxCell>
        <mxCell id="Fmh4cS3P_eQ8kJ_-uKX7-30" value="City" style="text;align=left;verticalAlign=top;spacingLeft=4;spacingRight=4;overflow=hidden;rotatable=0;points=[[0,0.5],[1,0.5]];portConstraint=eastwest;rounded=0;shadow=0;html=0;" vertex="1" parent="Fmh4cS3P_eQ8kJ_-uKX7-20">
          <mxGeometry y="78" width="190" height="26" as="geometry" />
        </mxCell>
        <mxCell id="Fmh4cS3P_eQ8kJ_-uKX7-31" value="Address" style="text;align=left;verticalAlign=top;spacingLeft=4;spacingRight=4;overflow=hidden;rotatable=0;points=[[0,0.5],[1,0.5]];portConstraint=eastwest;rounded=0;shadow=0;html=0;" vertex="1" parent="Fmh4cS3P_eQ8kJ_-uKX7-20">
          <mxGeometry y="104" width="190" height="26" as="geometry" />
        </mxCell>
        <mxCell id="Fmh4cS3P_eQ8kJ_-uKX7-32" value="Postal number" style="text;align=left;verticalAlign=top;spacingLeft=4;spacingRight=4;overflow=hidden;rotatable=0;points=[[0,0.5],[1,0.5]];portConstraint=eastwest;rounded=0;shadow=0;html=0;" vertex="1" parent="Fmh4cS3P_eQ8kJ_-uKX7-20">
          <mxGeometry y="130" width="190" height="26" as="geometry" />
        </mxCell>
        <mxCell id="Fmh4cS3P_eQ8kJ_-uKX7-33" value="Telephone number" style="text;align=left;verticalAlign=top;spacingLeft=4;spacingRight=4;overflow=hidden;rotatable=0;points=[[0,0.5],[1,0.5]];portConstraint=eastwest;rounded=0;shadow=0;html=0;" vertex="1" parent="Fmh4cS3P_eQ8kJ_-uKX7-20">
          <mxGeometry y="156" width="190" height="26" as="geometry" />
        </mxCell>
        <mxCell id="Fmh4cS3P_eQ8kJ_-uKX7-34" value="Image" style="text;align=left;verticalAlign=top;spacingLeft=4;spacingRight=4;overflow=hidden;rotatable=0;points=[[0,0.5],[1,0.5]];portConstraint=eastwest;rounded=0;shadow=0;html=0;" vertex="1" parent="Fmh4cS3P_eQ8kJ_-uKX7-20">
          <mxGeometry y="182" width="190" height="26" as="geometry" />
        </mxCell>
        <mxCell id="Fmh4cS3P_eQ8kJ_-uKX7-23" value="" style="line;html=1;strokeWidth=1;align=left;verticalAlign=middle;spacingTop=-1;spacingLeft=3;spacingRight=3;rotatable=0;labelPosition=right;points=[];portConstraint=eastwest;" vertex="1" parent="Fmh4cS3P_eQ8kJ_-uKX7-20">
          <mxGeometry y="208" width="190" height="8" as="geometry" />
        </mxCell>
        <mxCell id="Fmh4cS3P_eQ8kJ_-uKX7-94" style="edgeStyle=orthogonalEdgeStyle;rounded=0;orthogonalLoop=1;jettySize=auto;html=1;entryX=0;entryY=0.75;entryDx=0;entryDy=0;" edge="1" parent="WIyWlLk6GJQsqaUBKTNV-1" source="Fmh4cS3P_eQ8kJ_-uKX7-25" target="Fmh4cS3P_eQ8kJ_-uKX7-56">
          <mxGeometry relative="1" as="geometry">
            <Array as="points">
              <mxPoint x="-410" y="273" />
            </Array>
          </mxGeometry>
        </mxCell>
        <mxCell id="Fmh4cS3P_eQ8kJ_-uKX7-95" value="*" style="edgeLabel;html=1;align=center;verticalAlign=middle;resizable=0;points=[];" vertex="1" connectable="0" parent="Fmh4cS3P_eQ8kJ_-uKX7-94">
          <mxGeometry x="0.8639" y="-2" relative="1" as="geometry">
            <mxPoint as="offset" />
          </mxGeometry>
        </mxCell>
        <mxCell id="Fmh4cS3P_eQ8kJ_-uKX7-96" value="ProductCategoryOffers" style="edgeLabel;html=1;align=center;verticalAlign=middle;resizable=0;points=[];" vertex="1" connectable="0" parent="Fmh4cS3P_eQ8kJ_-uKX7-94">
          <mxGeometry x="0.7252" y="2" relative="1" as="geometry">
            <mxPoint x="-45" as="offset" />
          </mxGeometry>
        </mxCell>
        <mxCell id="Fmh4cS3P_eQ8kJ_-uKX7-97" value="*" style="edgeLabel;html=1;align=center;verticalAlign=middle;resizable=0;points=[];" vertex="1" connectable="0" parent="Fmh4cS3P_eQ8kJ_-uKX7-94">
          <mxGeometry x="-0.9048" y="-1" relative="1" as="geometry">
            <mxPoint as="offset" />
          </mxGeometry>
        </mxCell>
        <mxCell id="Fmh4cS3P_eQ8kJ_-uKX7-98" style="edgeStyle=orthogonalEdgeStyle;rounded=0;orthogonalLoop=1;jettySize=auto;html=1;" edge="1" parent="WIyWlLk6GJQsqaUBKTNV-1">
          <mxGeometry relative="1" as="geometry">
            <mxPoint x="-50" y="490" as="targetPoint" />
            <mxPoint x="-470" y="-110" as="sourcePoint" />
            <Array as="points">
              <mxPoint x="-470" y="490" />
            </Array>
          </mxGeometry>
        </mxCell>
        <mxCell id="Fmh4cS3P_eQ8kJ_-uKX7-100" value="ServiceCategoryOffers" style="edgeLabel;html=1;align=center;verticalAlign=middle;resizable=0;points=[];" vertex="1" connectable="0" parent="Fmh4cS3P_eQ8kJ_-uKX7-98">
          <mxGeometry x="0.8373" y="2" relative="1" as="geometry">
            <mxPoint x="-78" y="2" as="offset" />
          </mxGeometry>
        </mxCell>
        <mxCell id="Fmh4cS3P_eQ8kJ_-uKX7-101" value="*" style="edgeLabel;html=1;align=center;verticalAlign=middle;resizable=0;points=[];" vertex="1" connectable="0" parent="Fmh4cS3P_eQ8kJ_-uKX7-98">
          <mxGeometry x="0.9326" relative="1" as="geometry">
            <mxPoint as="offset" />
          </mxGeometry>
        </mxCell>
        <mxCell id="Fmh4cS3P_eQ8kJ_-uKX7-102" value="*" style="edgeLabel;html=1;align=center;verticalAlign=middle;resizable=0;points=[];" vertex="1" connectable="0" parent="Fmh4cS3P_eQ8kJ_-uKX7-98">
          <mxGeometry x="-0.8755" y="-1" relative="1" as="geometry">
            <mxPoint as="offset" />
          </mxGeometry>
        </mxCell>
        <mxCell id="Fmh4cS3P_eQ8kJ_-uKX7-106" value=" " style="edgeStyle=orthogonalEdgeStyle;rounded=0;orthogonalLoop=1;jettySize=auto;html=1;" edge="1" parent="WIyWlLk6GJQsqaUBKTNV-1" source="Fmh4cS3P_eQ8kJ_-uKX7-25" target="Fmh4cS3P_eQ8kJ_-uKX7-64">
          <mxGeometry relative="1" as="geometry">
            <Array as="points">
              <mxPoint x="-470" y="-430" />
              <mxPoint x="320" y="-430" />
            </Array>
          </mxGeometry>
        </mxCell>
        <mxCell id="Fmh4cS3P_eQ8kJ_-uKX7-109" value="1" style="edgeLabel;html=1;align=center;verticalAlign=middle;resizable=0;points=[];" vertex="1" connectable="0" parent="Fmh4cS3P_eQ8kJ_-uKX7-106">
          <mxGeometry x="-0.8894" relative="1" as="geometry">
            <mxPoint as="offset" />
          </mxGeometry>
        </mxCell>
        <mxCell id="Fmh4cS3P_eQ8kJ_-uKX7-110" value="*" style="edgeLabel;html=1;align=center;verticalAlign=middle;resizable=0;points=[];" vertex="1" connectable="0" parent="Fmh4cS3P_eQ8kJ_-uKX7-106">
          <mxGeometry x="0.9376" y="-3" relative="1" as="geometry">
            <mxPoint x="3" as="offset" />
          </mxGeometry>
        </mxCell>
        <mxCell id="Fmh4cS3P_eQ8kJ_-uKX7-25" value="Seller (PUP)" style="swimlane;fontStyle=0;align=center;verticalAlign=top;childLayout=stackLayout;horizontal=1;startSize=26;horizontalStack=0;resizeParent=1;resizeLast=0;collapsible=1;marginBottom=0;rounded=0;shadow=0;strokeWidth=1;" vertex="1" parent="WIyWlLk6GJQsqaUBKTNV-1">
          <mxGeometry x="-550" y="-400" width="160" height="290" as="geometry">
            <mxRectangle x="550" y="140" width="160" height="26" as="alternateBounds" />
          </mxGeometry>
        </mxCell>
        <mxCell id="Fmh4cS3P_eQ8kJ_-uKX7-27" value="Name" style="text;align=left;verticalAlign=top;spacingLeft=4;spacingRight=4;overflow=hidden;rotatable=0;points=[[0,0.5],[1,0.5]];portConstraint=eastwest;rounded=0;shadow=0;html=0;" vertex="1" parent="Fmh4cS3P_eQ8kJ_-uKX7-25">
          <mxGeometry y="26" width="160" height="26" as="geometry" />
        </mxCell>
        <mxCell id="Fmh4cS3P_eQ8kJ_-uKX7-36" value="City" style="text;align=left;verticalAlign=top;spacingLeft=4;spacingRight=4;overflow=hidden;rotatable=0;points=[[0,0.5],[1,0.5]];portConstraint=eastwest;rounded=0;shadow=0;html=0;" vertex="1" parent="Fmh4cS3P_eQ8kJ_-uKX7-25">
          <mxGeometry y="52" width="160" height="26" as="geometry" />
        </mxCell>
        <mxCell id="Fmh4cS3P_eQ8kJ_-uKX7-37" value="Address" style="text;align=left;verticalAlign=top;spacingLeft=4;spacingRight=4;overflow=hidden;rotatable=0;points=[[0,0.5],[1,0.5]];portConstraint=eastwest;rounded=0;shadow=0;html=0;" vertex="1" parent="Fmh4cS3P_eQ8kJ_-uKX7-25">
          <mxGeometry y="78" width="160" height="26" as="geometry" />
        </mxCell>
        <mxCell id="Fmh4cS3P_eQ8kJ_-uKX7-38" value="Postal number" style="text;align=left;verticalAlign=top;spacingLeft=4;spacingRight=4;overflow=hidden;rotatable=0;points=[[0,0.5],[1,0.5]];portConstraint=eastwest;rounded=0;shadow=0;html=0;" vertex="1" parent="Fmh4cS3P_eQ8kJ_-uKX7-25">
          <mxGeometry y="104" width="160" height="26" as="geometry" />
        </mxCell>
        <mxCell id="Fmh4cS3P_eQ8kJ_-uKX7-39" value="Telephone number" style="text;align=left;verticalAlign=top;spacingLeft=4;spacingRight=4;overflow=hidden;rotatable=0;points=[[0,0.5],[1,0.5]];portConstraint=eastwest;rounded=0;shadow=0;html=0;" vertex="1" parent="Fmh4cS3P_eQ8kJ_-uKX7-25">
          <mxGeometry y="130" width="160" height="26" as="geometry" />
        </mxCell>
        <mxCell id="Fmh4cS3P_eQ8kJ_-uKX7-40" value="Images" style="text;align=left;verticalAlign=top;spacingLeft=4;spacingRight=4;overflow=hidden;rotatable=0;points=[[0,0.5],[1,0.5]];portConstraint=eastwest;rounded=0;shadow=0;html=0;" vertex="1" parent="Fmh4cS3P_eQ8kJ_-uKX7-25">
          <mxGeometry y="156" width="160" height="26" as="geometry" />
        </mxCell>
        <mxCell id="Fmh4cS3P_eQ8kJ_-uKX7-28" value="" style="line;html=1;strokeWidth=1;align=left;verticalAlign=middle;spacingTop=-1;spacingLeft=3;spacingRight=3;rotatable=0;labelPosition=right;points=[];portConstraint=eastwest;" vertex="1" parent="Fmh4cS3P_eQ8kJ_-uKX7-25">
          <mxGeometry y="182" width="160" height="8" as="geometry" />
        </mxCell>
        <mxCell id="Fmh4cS3P_eQ8kJ_-uKX7-41" value="Admin" style="swimlane;fontStyle=0;align=center;verticalAlign=top;childLayout=stackLayout;horizontal=1;startSize=26;horizontalStack=0;resizeParent=1;resizeLast=0;collapsible=1;marginBottom=0;rounded=0;shadow=0;strokeWidth=1;" vertex="1" parent="WIyWlLk6GJQsqaUBKTNV-1">
          <mxGeometry x="-350" y="-400" width="160" height="290" as="geometry">
            <mxRectangle x="550" y="140" width="160" height="26" as="alternateBounds" />
          </mxGeometry>
        </mxCell>
        <mxCell id="Fmh4cS3P_eQ8kJ_-uKX7-49" value="" style="line;html=1;strokeWidth=1;align=left;verticalAlign=middle;spacingTop=-1;spacingLeft=3;spacingRight=3;rotatable=0;labelPosition=right;points=[];portConstraint=eastwest;" vertex="1" parent="Fmh4cS3P_eQ8kJ_-uKX7-41">
          <mxGeometry y="26" width="160" height="8" as="geometry" />
        </mxCell>
        <mxCell id="Fmh4cS3P_eQ8kJ_-uKX7-56" value="ProductCategory" style="swimlane;fontStyle=0;align=center;verticalAlign=top;childLayout=stackLayout;horizontal=1;startSize=26;horizontalStack=0;resizeParent=1;resizeLast=0;collapsible=1;marginBottom=0;rounded=0;shadow=0;strokeWidth=1;" vertex="1" parent="WIyWlLk6GJQsqaUBKTNV-1">
          <mxGeometry x="-40" y="170" width="160" height="150" as="geometry">
            <mxRectangle x="550" y="140" width="160" height="26" as="alternateBounds" />
          </mxGeometry>
        </mxCell>
        <mxCell id="Fmh4cS3P_eQ8kJ_-uKX7-151" value="IsPending" style="text;align=left;verticalAlign=top;spacingLeft=4;spacingRight=4;overflow=hidden;rotatable=0;points=[[0,0.5],[1,0.5]];portConstraint=eastwest;" vertex="1" parent="Fmh4cS3P_eQ8kJ_-uKX7-56">
          <mxGeometry y="26" width="160" height="26" as="geometry" />
        </mxCell>
        <mxCell id="rpGaOk7rnE4ZSk3WpupD-65" value="Name" style="text;align=left;verticalAlign=top;spacingLeft=4;spacingRight=4;overflow=hidden;rotatable=0;points=[[0,0.5],[1,0.5]];portConstraint=eastwest;" vertex="1" parent="Fmh4cS3P_eQ8kJ_-uKX7-56">
          <mxGeometry y="52" width="160" height="26" as="geometry" />
        </mxCell>
        <mxCell id="rpGaOk7rnE4ZSk3WpupD-66" value="Description&#xa;" style="text;align=left;verticalAlign=top;spacingLeft=4;spacingRight=4;overflow=hidden;rotatable=0;points=[[0,0.5],[1,0.5]];portConstraint=eastwest;" vertex="1" parent="Fmh4cS3P_eQ8kJ_-uKX7-56">
          <mxGeometry y="78" width="160" height="26" as="geometry" />
        </mxCell>
        <mxCell id="rpGaOk7rnE4ZSk3WpupD-69" value="IsDeleted" style="text;align=left;verticalAlign=top;spacingLeft=4;spacingRight=4;overflow=hidden;rotatable=0;points=[[0,0.5],[1,0.5]];portConstraint=eastwest;" vertex="1" parent="Fmh4cS3P_eQ8kJ_-uKX7-56">
          <mxGeometry y="104" width="160" height="26" as="geometry" />
        </mxCell>
        <mxCell id="Fmh4cS3P_eQ8kJ_-uKX7-59" value="" style="line;html=1;strokeWidth=1;align=left;verticalAlign=middle;spacingTop=-1;spacingLeft=3;spacingRight=3;rotatable=0;labelPosition=right;points=[];portConstraint=eastwest;" vertex="1" parent="Fmh4cS3P_eQ8kJ_-uKX7-56">
          <mxGeometry y="130" width="160" height="8" as="geometry" />
        </mxCell>
        <mxCell id="Fmh4cS3P_eQ8kJ_-uKX7-60" value="ServiceCategory" style="swimlane;fontStyle=0;align=center;verticalAlign=top;childLayout=stackLayout;horizontal=1;startSize=26;horizontalStack=0;resizeParent=1;resizeLast=0;collapsible=1;marginBottom=0;rounded=0;shadow=0;strokeWidth=1;" vertex="1" parent="WIyWlLk6GJQsqaUBKTNV-1">
          <mxGeometry x="-50" y="360" width="160" height="150" as="geometry">
            <mxRectangle x="550" y="140" width="160" height="26" as="alternateBounds" />
          </mxGeometry>
        </mxCell>
        <mxCell id="Fmh4cS3P_eQ8kJ_-uKX7-152" value="IsPending" style="text;align=left;verticalAlign=top;spacingLeft=4;spacingRight=4;overflow=hidden;rotatable=0;points=[[0,0.5],[1,0.5]];portConstraint=eastwest;" vertex="1" parent="Fmh4cS3P_eQ8kJ_-uKX7-60">
          <mxGeometry y="26" width="160" height="26" as="geometry" />
        </mxCell>
        <mxCell id="rpGaOk7rnE4ZSk3WpupD-68" value="Description&#xa;" style="text;align=left;verticalAlign=top;spacingLeft=4;spacingRight=4;overflow=hidden;rotatable=0;points=[[0,0.5],[1,0.5]];portConstraint=eastwest;" vertex="1" parent="Fmh4cS3P_eQ8kJ_-uKX7-60">
          <mxGeometry y="52" width="160" height="26" as="geometry" />
        </mxCell>
        <mxCell id="rpGaOk7rnE4ZSk3WpupD-67" value="Name" style="text;align=left;verticalAlign=top;spacingLeft=4;spacingRight=4;overflow=hidden;rotatable=0;points=[[0,0.5],[1,0.5]];portConstraint=eastwest;" vertex="1" parent="Fmh4cS3P_eQ8kJ_-uKX7-60">
          <mxGeometry y="78" width="160" height="26" as="geometry" />
        </mxCell>
        <mxCell id="rpGaOk7rnE4ZSk3WpupD-70" value="IsDeleted" style="text;align=left;verticalAlign=top;spacingLeft=4;spacingRight=4;overflow=hidden;rotatable=0;points=[[0,0.5],[1,0.5]];portConstraint=eastwest;" vertex="1" parent="Fmh4cS3P_eQ8kJ_-uKX7-60">
          <mxGeometry y="104" width="160" height="26" as="geometry" />
        </mxCell>
        <mxCell id="Fmh4cS3P_eQ8kJ_-uKX7-63" value="" style="line;html=1;strokeWidth=1;align=left;verticalAlign=middle;spacingTop=-1;spacingLeft=3;spacingRight=3;rotatable=0;labelPosition=right;points=[];portConstraint=eastwest;" vertex="1" parent="Fmh4cS3P_eQ8kJ_-uKX7-60">
          <mxGeometry y="130" width="160" height="8" as="geometry" />
        </mxCell>
        <mxCell id="rpGaOk7rnE4ZSk3WpupD-73" style="edgeStyle=orthogonalEdgeStyle;rounded=0;orthogonalLoop=1;jettySize=auto;html=1;entryX=1;entryY=0.5;entryDx=0;entryDy=0;" edge="1" parent="WIyWlLk6GJQsqaUBKTNV-1" source="Fmh4cS3P_eQ8kJ_-uKX7-64" target="rpGaOk7rnE4ZSk3WpupD-65">
          <mxGeometry relative="1" as="geometry" />
        </mxCell>
        <mxCell id="rpGaOk7rnE4ZSk3WpupD-74" value="1" style="edgeLabel;html=1;align=center;verticalAlign=middle;resizable=0;points=[];" connectable="0" vertex="1" parent="rpGaOk7rnE4ZSk3WpupD-73">
          <mxGeometry x="0.8225" y="-1" relative="1" as="geometry">
            <mxPoint as="offset" />
          </mxGeometry>
        </mxCell>
        <mxCell id="rpGaOk7rnE4ZSk3WpupD-75" value="*" style="edgeLabel;html=1;align=center;verticalAlign=middle;resizable=0;points=[];" connectable="0" vertex="1" parent="rpGaOk7rnE4ZSk3WpupD-73">
          <mxGeometry x="-0.8663" y="-3" relative="1" as="geometry">
            <mxPoint as="offset" />
          </mxGeometry>
        </mxCell>
        <mxCell id="Fmh4cS3P_eQ8kJ_-uKX7-64" value="Product" style="swimlane;fontStyle=0;align=center;verticalAlign=top;childLayout=stackLayout;horizontal=1;startSize=26;horizontalStack=0;resizeParent=1;resizeLast=0;collapsible=1;marginBottom=0;rounded=0;shadow=0;strokeWidth=1;" vertex="1" parent="WIyWlLk6GJQsqaUBKTNV-1">
          <mxGeometry x="250" y="-90" width="170" height="282" as="geometry">
            <mxRectangle x="550" y="140" width="160" height="26" as="alternateBounds" />
          </mxGeometry>
        </mxCell>
        <mxCell id="rpGaOk7rnE4ZSk3WpupD-53" value="Price" style="text;align=left;verticalAlign=top;spacingLeft=4;spacingRight=4;overflow=hidden;rotatable=0;points=[[0,0.5],[1,0.5]];portConstraint=eastwest;rounded=0;shadow=0;html=0;" vertex="1" parent="Fmh4cS3P_eQ8kJ_-uKX7-64">
          <mxGeometry y="26" width="170" height="26" as="geometry" />
        </mxCell>
        <mxCell id="rpGaOk7rnE4ZSk3WpupD-52" value="Images" style="text;align=left;verticalAlign=top;spacingLeft=4;spacingRight=4;overflow=hidden;rotatable=0;points=[[0,0.5],[1,0.5]];portConstraint=eastwest;rounded=0;shadow=0;html=0;" vertex="1" parent="Fmh4cS3P_eQ8kJ_-uKX7-64">
          <mxGeometry y="52" width="170" height="26" as="geometry" />
        </mxCell>
        <mxCell id="rpGaOk7rnE4ZSk3WpupD-51" value="Sale" style="text;align=left;verticalAlign=top;spacingLeft=4;spacingRight=4;overflow=hidden;rotatable=0;points=[[0,0.5],[1,0.5]];portConstraint=eastwest;rounded=0;shadow=0;html=0;" vertex="1" parent="Fmh4cS3P_eQ8kJ_-uKX7-64">
          <mxGeometry y="78" width="170" height="26" as="geometry" />
        </mxCell>
        <mxCell id="rpGaOk7rnE4ZSk3WpupD-50" value="Name" style="text;align=left;verticalAlign=top;spacingLeft=4;spacingRight=4;overflow=hidden;rotatable=0;points=[[0,0.5],[1,0.5]];portConstraint=eastwest;rounded=0;shadow=0;html=0;" vertex="1" parent="Fmh4cS3P_eQ8kJ_-uKX7-64">
          <mxGeometry y="104" width="170" height="26" as="geometry" />
        </mxCell>
        <mxCell id="rpGaOk7rnE4ZSk3WpupD-61" value="IsActive" style="text;align=left;verticalAlign=top;spacingLeft=4;spacingRight=4;overflow=hidden;rotatable=0;points=[[0,0.5],[1,0.5]];portConstraint=eastwest;rounded=0;shadow=0;html=0;" vertex="1" parent="Fmh4cS3P_eQ8kJ_-uKX7-64">
          <mxGeometry y="130" width="170" height="26" as="geometry" />
        </mxCell>
        <mxCell id="rpGaOk7rnE4ZSk3WpupD-60" value="isAvailable" style="text;align=left;verticalAlign=top;spacingLeft=4;spacingRight=4;overflow=hidden;rotatable=0;points=[[0,0.5],[1,0.5]];portConstraint=eastwest;rounded=0;shadow=0;html=0;" vertex="1" parent="Fmh4cS3P_eQ8kJ_-uKX7-64">
          <mxGeometry y="156" width="170" height="26" as="geometry" />
        </mxCell>
        <mxCell id="rpGaOk7rnE4ZSk3WpupD-59" value="isPrivate" style="text;align=left;verticalAlign=top;spacingLeft=4;spacingRight=4;overflow=hidden;rotatable=0;points=[[0,0.5],[1,0.5]];portConstraint=eastwest;rounded=0;shadow=0;html=0;" vertex="1" parent="Fmh4cS3P_eQ8kJ_-uKX7-64">
          <mxGeometry y="182" width="170" height="26" as="geometry" />
        </mxCell>
        <mxCell id="rpGaOk7rnE4ZSk3WpupD-86" value="Version" style="text;align=left;verticalAlign=top;spacingLeft=4;spacingRight=4;overflow=hidden;rotatable=0;points=[[0,0.5],[1,0.5]];portConstraint=eastwest;rounded=0;shadow=0;html=0;" vertex="1" parent="Fmh4cS3P_eQ8kJ_-uKX7-64">
          <mxGeometry y="208" width="170" height="26" as="geometry" />
        </mxCell>
        <mxCell id="Fmh4cS3P_eQ8kJ_-uKX7-67" value="" style="line;html=1;strokeWidth=1;align=left;verticalAlign=middle;spacingTop=-1;spacingLeft=3;spacingRight=3;rotatable=0;labelPosition=right;points=[];portConstraint=eastwest;" vertex="1" parent="Fmh4cS3P_eQ8kJ_-uKX7-64">
          <mxGeometry y="234" width="170" height="8" as="geometry" />
        </mxCell>
        <mxCell id="rpGaOk7rnE4ZSk3WpupD-71" value="generatePdf(): json" style="text;align=left;verticalAlign=top;spacingLeft=4;spacingRight=4;overflow=hidden;rotatable=0;points=[[0,0.5],[1,0.5]];portConstraint=eastwest;rounded=0;shadow=0;html=0;" vertex="1" parent="Fmh4cS3P_eQ8kJ_-uKX7-64">
          <mxGeometry y="242" width="170" height="26" as="geometry" />
        </mxCell>
        <mxCell id="rpGaOk7rnE4ZSk3WpupD-9" style="edgeStyle=orthogonalEdgeStyle;rounded=0;orthogonalLoop=1;jettySize=auto;html=1;" edge="1" parent="WIyWlLk6GJQsqaUBKTNV-1">
          <mxGeometry relative="1" as="geometry">
            <mxPoint x="110" y="500" as="targetPoint" />
            <mxPoint x="240" y="501" as="sourcePoint" />
            <Array as="points">
              <mxPoint x="240" y="500" />
            </Array>
          </mxGeometry>
        </mxCell>
        <mxCell id="rpGaOk7rnE4ZSk3WpupD-10" value="1" style="edgeLabel;html=1;align=center;verticalAlign=middle;resizable=0;points=[];" connectable="0" vertex="1" parent="rpGaOk7rnE4ZSk3WpupD-9">
          <mxGeometry x="0.6387" y="1" relative="1" as="geometry">
            <mxPoint as="offset" />
          </mxGeometry>
        </mxCell>
        <mxCell id="rpGaOk7rnE4ZSk3WpupD-11" value="*" style="edgeLabel;html=1;align=center;verticalAlign=middle;resizable=0;points=[];" connectable="0" vertex="1" parent="rpGaOk7rnE4ZSk3WpupD-9">
          <mxGeometry x="-0.8219" y="1" relative="1" as="geometry">
            <mxPoint as="offset" />
          </mxGeometry>
        </mxCell>
        <mxCell id="rpGaOk7rnE4ZSk3WpupD-29" style="edgeStyle=orthogonalEdgeStyle;rounded=0;orthogonalLoop=1;jettySize=auto;html=1;entryX=1;entryY=0.5;entryDx=0;entryDy=0;" edge="1" parent="WIyWlLk6GJQsqaUBKTNV-1" source="Fmh4cS3P_eQ8kJ_-uKX7-68" target="Fmh4cS3P_eQ8kJ_-uKX7-154">
          <mxGeometry relative="1" as="geometry">
            <Array as="points">
              <mxPoint x="470" y="495" />
              <mxPoint x="470" y="-594" />
            </Array>
          </mxGeometry>
        </mxCell>
        <mxCell id="rpGaOk7rnE4ZSk3WpupD-30" value="*" style="edgeLabel;html=1;align=center;verticalAlign=middle;resizable=0;points=[];" connectable="0" vertex="1" parent="rpGaOk7rnE4ZSk3WpupD-29">
          <mxGeometry x="0.9543" y="-1" relative="1" as="geometry">
            <mxPoint as="offset" />
          </mxGeometry>
        </mxCell>
        <mxCell id="rpGaOk7rnE4ZSk3WpupD-31" value="Available&lt;br&gt;Event&lt;br&gt;Types" style="edgeLabel;html=1;align=center;verticalAlign=middle;resizable=0;points=[];" connectable="0" vertex="1" parent="rpGaOk7rnE4ZSk3WpupD-29">
          <mxGeometry x="0.8987" y="-5" relative="1" as="geometry">
            <mxPoint as="offset" />
          </mxGeometry>
        </mxCell>
        <mxCell id="rpGaOk7rnE4ZSk3WpupD-32" value="*" style="edgeLabel;html=1;align=center;verticalAlign=middle;resizable=0;points=[];" connectable="0" vertex="1" parent="rpGaOk7rnE4ZSk3WpupD-29">
          <mxGeometry x="-0.9654" y="1" relative="1" as="geometry">
            <mxPoint as="offset" />
          </mxGeometry>
        </mxCell>
        <mxCell id="Fmh4cS3P_eQ8kJ_-uKX7-68" value="Service" style="swimlane;fontStyle=0;align=center;verticalAlign=top;childLayout=stackLayout;horizontal=1;startSize=26;horizontalStack=0;resizeParent=1;resizeLast=0;collapsible=1;marginBottom=0;rounded=0;shadow=0;strokeWidth=1;" vertex="1" parent="WIyWlLk6GJQsqaUBKTNV-1">
          <mxGeometry x="240" y="330" width="180" height="580" as="geometry">
            <mxRectangle x="550" y="140" width="160" height="26" as="alternateBounds" />
          </mxGeometry>
        </mxCell>
        <mxCell id="rpGaOk7rnE4ZSk3WpupD-19" value="Name" style="text;align=left;verticalAlign=top;spacingLeft=4;spacingRight=4;overflow=hidden;rotatable=0;points=[[0,0.5],[1,0.5]];portConstraint=eastwest;rounded=0;shadow=0;html=0;" vertex="1" parent="Fmh4cS3P_eQ8kJ_-uKX7-68">
          <mxGeometry y="26" width="180" height="26" as="geometry" />
        </mxCell>
        <mxCell id="rpGaOk7rnE4ZSk3WpupD-23" value="Sale" style="text;align=left;verticalAlign=top;spacingLeft=4;spacingRight=4;overflow=hidden;rotatable=0;points=[[0,0.5],[1,0.5]];portConstraint=eastwest;rounded=0;shadow=0;html=0;" vertex="1" parent="Fmh4cS3P_eQ8kJ_-uKX7-68">
          <mxGeometry y="52" width="180" height="26" as="geometry" />
        </mxCell>
        <mxCell id="rpGaOk7rnE4ZSk3WpupD-22" value="Images" style="text;align=left;verticalAlign=top;spacingLeft=4;spacingRight=4;overflow=hidden;rotatable=0;points=[[0,0.5],[1,0.5]];portConstraint=eastwest;rounded=0;shadow=0;html=0;" vertex="1" parent="Fmh4cS3P_eQ8kJ_-uKX7-68">
          <mxGeometry y="78" width="180" height="26" as="geometry" />
        </mxCell>
        <mxCell id="rpGaOk7rnE4ZSk3WpupD-21" value="Specificnost???" style="text;align=left;verticalAlign=top;spacingLeft=4;spacingRight=4;overflow=hidden;rotatable=0;points=[[0,0.5],[1,0.5]];portConstraint=eastwest;rounded=0;shadow=0;html=0;" vertex="1" parent="Fmh4cS3P_eQ8kJ_-uKX7-68">
          <mxGeometry y="104" width="180" height="26" as="geometry" />
        </mxCell>
        <mxCell id="rpGaOk7rnE4ZSk3WpupD-20" value="Description" style="text;align=left;verticalAlign=top;spacingLeft=4;spacingRight=4;overflow=hidden;rotatable=0;points=[[0,0.5],[1,0.5]];portConstraint=eastwest;rounded=0;shadow=0;html=0;" vertex="1" parent="Fmh4cS3P_eQ8kJ_-uKX7-68">
          <mxGeometry y="130" width="180" height="26" as="geometry" />
        </mxCell>
        <mxCell id="rpGaOk7rnE4ZSk3WpupD-24" value="isPrivate" style="text;align=left;verticalAlign=top;spacingLeft=4;spacingRight=4;overflow=hidden;rotatable=0;points=[[0,0.5],[1,0.5]];portConstraint=eastwest;rounded=0;shadow=0;html=0;" vertex="1" parent="Fmh4cS3P_eQ8kJ_-uKX7-68">
          <mxGeometry y="156" width="180" height="26" as="geometry" />
        </mxCell>
        <mxCell id="rpGaOk7rnE4ZSk3WpupD-25" value="isAvailable" style="text;align=left;verticalAlign=top;spacingLeft=4;spacingRight=4;overflow=hidden;rotatable=0;points=[[0,0.5],[1,0.5]];portConstraint=eastwest;rounded=0;shadow=0;html=0;" vertex="1" parent="Fmh4cS3P_eQ8kJ_-uKX7-68">
          <mxGeometry y="182" width="180" height="26" as="geometry" />
        </mxCell>
        <mxCell id="rpGaOk7rnE4ZSk3WpupD-26" value="Duration: int (in minutes, nullable)" style="text;align=left;verticalAlign=top;spacingLeft=4;spacingRight=4;overflow=hidden;rotatable=0;points=[[0,0.5],[1,0.5]];portConstraint=eastwest;rounded=0;shadow=0;html=0;" vertex="1" parent="Fmh4cS3P_eQ8kJ_-uKX7-68">
          <mxGeometry y="208" width="180" height="26" as="geometry" />
        </mxCell>
        <mxCell id="rpGaOk7rnE4ZSk3WpupD-37" value="CancellationDeadline" style="text;align=left;verticalAlign=top;spacingLeft=4;spacingRight=4;overflow=hidden;rotatable=0;points=[[0,0.5],[1,0.5]];portConstraint=eastwest;rounded=0;shadow=0;html=0;" vertex="1" parent="Fmh4cS3P_eQ8kJ_-uKX7-68">
          <mxGeometry y="234" width="180" height="26" as="geometry" />
        </mxCell>
        <mxCell id="rpGaOk7rnE4ZSk3WpupD-38" value="ReservationDeadline" style="text;align=left;verticalAlign=top;spacingLeft=4;spacingRight=4;overflow=hidden;rotatable=0;points=[[0,0.5],[1,0.5]];portConstraint=eastwest;rounded=0;shadow=0;html=0;" vertex="1" parent="Fmh4cS3P_eQ8kJ_-uKX7-68">
          <mxGeometry y="260" width="180" height="26" as="geometry" />
        </mxCell>
        <mxCell id="rpGaOk7rnE4ZSk3WpupD-39" value="IsActive" style="text;align=left;verticalAlign=top;spacingLeft=4;spacingRight=4;overflow=hidden;rotatable=0;points=[[0,0.5],[1,0.5]];portConstraint=eastwest;rounded=0;shadow=0;html=0;" vertex="1" parent="Fmh4cS3P_eQ8kJ_-uKX7-68">
          <mxGeometry y="286" width="180" height="26" as="geometry" />
        </mxCell>
        <mxCell id="rpGaOk7rnE4ZSk3WpupD-40" value="isConfirmationManual" style="text;align=left;verticalAlign=top;spacingLeft=4;spacingRight=4;overflow=hidden;rotatable=0;points=[[0,0.5],[1,0.5]];portConstraint=eastwest;rounded=0;shadow=0;html=0;" vertex="1" parent="Fmh4cS3P_eQ8kJ_-uKX7-68">
          <mxGeometry y="312" width="180" height="26" as="geometry" />
        </mxCell>
        <mxCell id="rpGaOk7rnE4ZSk3WpupD-45" value="Price" style="text;align=left;verticalAlign=top;spacingLeft=4;spacingRight=4;overflow=hidden;rotatable=0;points=[[0,0.5],[1,0.5]];portConstraint=eastwest;rounded=0;shadow=0;html=0;" vertex="1" parent="Fmh4cS3P_eQ8kJ_-uKX7-68">
          <mxGeometry y="338" width="180" height="26" as="geometry" />
        </mxCell>
        <mxCell id="rpGaOk7rnE4ZSk3WpupD-87" value="Version" style="text;align=left;verticalAlign=top;spacingLeft=4;spacingRight=4;overflow=hidden;rotatable=0;points=[[0,0.5],[1,0.5]];portConstraint=eastwest;rounded=0;shadow=0;html=0;" vertex="1" parent="Fmh4cS3P_eQ8kJ_-uKX7-68">
          <mxGeometry y="364" width="180" height="26" as="geometry" />
        </mxCell>
        <mxCell id="rpGaOk7rnE4ZSk3WpupD-91" value="OpeningTime" style="text;align=left;verticalAlign=top;spacingLeft=4;spacingRight=4;overflow=hidden;rotatable=0;points=[[0,0.5],[1,0.5]];portConstraint=eastwest;rounded=0;shadow=0;html=0;" vertex="1" parent="Fmh4cS3P_eQ8kJ_-uKX7-68">
          <mxGeometry y="390" width="180" height="26" as="geometry" />
        </mxCell>
        <mxCell id="rpGaOk7rnE4ZSk3WpupD-92" value="ClosingTime" style="text;align=left;verticalAlign=top;spacingLeft=4;spacingRight=4;overflow=hidden;rotatable=0;points=[[0,0.5],[1,0.5]];portConstraint=eastwest;rounded=0;shadow=0;html=0;" vertex="1" parent="Fmh4cS3P_eQ8kJ_-uKX7-68">
          <mxGeometry y="416" width="180" height="26" as="geometry" />
        </mxCell>
        <mxCell id="Fmh4cS3P_eQ8kJ_-uKX7-69" value="" style="line;html=1;strokeWidth=1;align=left;verticalAlign=middle;spacingTop=-1;spacingLeft=3;spacingRight=3;rotatable=0;labelPosition=right;points=[];portConstraint=eastwest;" vertex="1" parent="Fmh4cS3P_eQ8kJ_-uKX7-68">
          <mxGeometry y="442" width="180" height="8" as="geometry" />
        </mxCell>
        <mxCell id="Fmh4cS3P_eQ8kJ_-uKX7-70" value="Event" style="swimlane;fontStyle=0;align=center;verticalAlign=top;childLayout=stackLayout;horizontal=1;startSize=26;horizontalStack=0;resizeParent=1;resizeLast=0;collapsible=1;marginBottom=0;rounded=0;shadow=0;strokeWidth=1;" vertex="1" parent="WIyWlLk6GJQsqaUBKTNV-1">
          <mxGeometry x="-100" y="-860" width="190" height="270" as="geometry">
            <mxRectangle x="550" y="140" width="160" height="26" as="alternateBounds" />
          </mxGeometry>
        </mxCell>
        <mxCell id="Fmh4cS3P_eQ8kJ_-uKX7-119" value="City" style="text;align=left;verticalAlign=top;spacingLeft=4;spacingRight=4;overflow=hidden;rotatable=0;points=[[0,0.5],[1,0.5]];portConstraint=eastwest;rounded=0;shadow=0;html=0;" vertex="1" parent="Fmh4cS3P_eQ8kJ_-uKX7-70">
          <mxGeometry y="26" width="190" height="26" as="geometry" />
        </mxCell>
        <mxCell id="Fmh4cS3P_eQ8kJ_-uKX7-120" value="IsPublic" style="text;align=left;verticalAlign=top;spacingLeft=4;spacingRight=4;overflow=hidden;rotatable=0;points=[[0,0.5],[1,0.5]];portConstraint=eastwest;rounded=0;shadow=0;html=0;" vertex="1" parent="Fmh4cS3P_eQ8kJ_-uKX7-70">
          <mxGeometry y="52" width="190" height="26" as="geometry" />
        </mxCell>
        <mxCell id="Fmh4cS3P_eQ8kJ_-uKX7-171" value="Name" style="text;align=left;verticalAlign=top;spacingLeft=4;spacingRight=4;overflow=hidden;rotatable=0;points=[[0,0.5],[1,0.5]];portConstraint=eastwest;rounded=0;shadow=0;html=0;" vertex="1" parent="Fmh4cS3P_eQ8kJ_-uKX7-70">
          <mxGeometry y="78" width="190" height="26" as="geometry" />
        </mxCell>
        <mxCell id="Fmh4cS3P_eQ8kJ_-uKX7-172" value="Description" style="text;align=left;verticalAlign=top;spacingLeft=4;spacingRight=4;overflow=hidden;rotatable=0;points=[[0,0.5],[1,0.5]];portConstraint=eastwest;rounded=0;shadow=0;html=0;" vertex="1" parent="Fmh4cS3P_eQ8kJ_-uKX7-70">
          <mxGeometry y="104" width="190" height="26" as="geometry" />
        </mxCell>
        <mxCell id="Fmh4cS3P_eQ8kJ_-uKX7-173" value="Date" style="text;align=left;verticalAlign=top;spacingLeft=4;spacingRight=4;overflow=hidden;rotatable=0;points=[[0,0.5],[1,0.5]];portConstraint=eastwest;rounded=0;shadow=0;html=0;" vertex="1" parent="Fmh4cS3P_eQ8kJ_-uKX7-70">
          <mxGeometry y="130" width="190" height="26" as="geometry" />
        </mxCell>
        <mxCell id="rpGaOk7rnE4ZSk3WpupD-85" value="GuestCount" style="text;align=left;verticalAlign=top;spacingLeft=4;spacingRight=4;overflow=hidden;rotatable=0;points=[[0,0.5],[1,0.5]];portConstraint=eastwest;rounded=0;shadow=0;html=0;" vertex="1" parent="Fmh4cS3P_eQ8kJ_-uKX7-70">
          <mxGeometry y="156" width="190" height="26" as="geometry" />
        </mxCell>
        <mxCell id="Fmh4cS3P_eQ8kJ_-uKX7-71" value="" style="line;html=1;strokeWidth=1;align=left;verticalAlign=middle;spacingTop=-1;spacingLeft=3;spacingRight=3;rotatable=0;labelPosition=right;points=[];portConstraint=eastwest;" vertex="1" parent="Fmh4cS3P_eQ8kJ_-uKX7-70">
          <mxGeometry y="182" width="190" height="8" as="geometry" />
        </mxCell>
        <mxCell id="Fmh4cS3P_eQ8kJ_-uKX7-196" value="GeneratePdf() : json" style="text;align=left;verticalAlign=top;spacingLeft=4;spacingRight=4;overflow=hidden;rotatable=0;points=[[0,0.5],[1,0.5]];portConstraint=eastwest;rounded=0;shadow=0;html=0;" vertex="1" parent="Fmh4cS3P_eQ8kJ_-uKX7-70">
          <mxGeometry y="190" width="190" height="26" as="geometry" />
        </mxCell>
        <mxCell id="7bUpUxkYCiLjOw0VMk9v-8" value="CalculateTotalBudget() : double" style="text;align=left;verticalAlign=top;spacingLeft=4;spacingRight=4;overflow=hidden;rotatable=0;points=[[0,0.5],[1,0.5]];portConstraint=eastwest;rounded=0;shadow=0;html=0;" vertex="1" parent="Fmh4cS3P_eQ8kJ_-uKX7-70">
          <mxGeometry y="216" width="190" height="54" as="geometry" />
        </mxCell>
        <mxCell id="Fmh4cS3P_eQ8kJ_-uKX7-72" style="edgeStyle=orthogonalEdgeStyle;rounded=0;orthogonalLoop=1;jettySize=auto;html=1;" edge="1" parent="WIyWlLk6GJQsqaUBKTNV-1" source="Fmh4cS3P_eQ8kJ_-uKX7-20">
          <mxGeometry relative="1" as="geometry">
            <mxPoint x="-640" y="30" as="targetPoint" />
            <Array as="points">
              <mxPoint x="-640" y="-40" />
              <mxPoint x="-639" y="-40" />
              <mxPoint x="-639" y="30" />
            </Array>
          </mxGeometry>
        </mxCell>
        <mxCell id="Fmh4cS3P_eQ8kJ_-uKX7-78" value="1" style="edgeLabel;html=1;align=center;verticalAlign=middle;resizable=0;points=[];" vertex="1" connectable="0" parent="Fmh4cS3P_eQ8kJ_-uKX7-72">
          <mxGeometry x="-0.7066" y="1" relative="1" as="geometry">
            <mxPoint as="offset" />
          </mxGeometry>
        </mxCell>
        <mxCell id="Fmh4cS3P_eQ8kJ_-uKX7-79" value="1" style="edgeLabel;html=1;align=center;verticalAlign=middle;resizable=0;points=[];" vertex="1" connectable="0" parent="Fmh4cS3P_eQ8kJ_-uKX7-72">
          <mxGeometry x="0.5751" y="-3" relative="1" as="geometry">
            <mxPoint as="offset" />
          </mxGeometry>
        </mxCell>
        <mxCell id="Fmh4cS3P_eQ8kJ_-uKX7-73" style="edgeStyle=orthogonalEdgeStyle;rounded=0;orthogonalLoop=1;jettySize=auto;html=1;entryX=0.828;entryY=0.006;entryDx=0;entryDy=0;entryPerimeter=0;" edge="1" parent="WIyWlLk6GJQsqaUBKTNV-1" source="Fmh4cS3P_eQ8kJ_-uKX7-25" target="Fmh4cS3P_eQ8kJ_-uKX7-9">
          <mxGeometry relative="1" as="geometry">
            <Array as="points">
              <mxPoint x="-528" y="-40" />
            </Array>
          </mxGeometry>
        </mxCell>
        <mxCell id="Fmh4cS3P_eQ8kJ_-uKX7-80" value="1" style="edgeLabel;html=1;align=center;verticalAlign=middle;resizable=0;points=[];" vertex="1" connectable="0" parent="Fmh4cS3P_eQ8kJ_-uKX7-73">
          <mxGeometry x="-0.6451" y="-1" relative="1" as="geometry">
            <mxPoint as="offset" />
          </mxGeometry>
        </mxCell>
        <mxCell id="Fmh4cS3P_eQ8kJ_-uKX7-81" value="1" style="edgeLabel;html=1;align=center;verticalAlign=middle;resizable=0;points=[];" vertex="1" connectable="0" parent="Fmh4cS3P_eQ8kJ_-uKX7-73">
          <mxGeometry x="0.6087" y="-1" relative="1" as="geometry">
            <mxPoint as="offset" />
          </mxGeometry>
        </mxCell>
        <mxCell id="Fmh4cS3P_eQ8kJ_-uKX7-74" style="edgeStyle=orthogonalEdgeStyle;rounded=0;orthogonalLoop=1;jettySize=auto;html=1;entryX=1.016;entryY=0.314;entryDx=0;entryDy=0;entryPerimeter=0;" edge="1" parent="WIyWlLk6GJQsqaUBKTNV-1" source="Fmh4cS3P_eQ8kJ_-uKX7-41" target="Fmh4cS3P_eQ8kJ_-uKX7-10">
          <mxGeometry relative="1" as="geometry" />
        </mxCell>
        <mxCell id="Fmh4cS3P_eQ8kJ_-uKX7-82" value="1" style="edgeLabel;html=1;align=center;verticalAlign=middle;resizable=0;points=[];" vertex="1" connectable="0" parent="Fmh4cS3P_eQ8kJ_-uKX7-74">
          <mxGeometry x="-0.8672" y="3" relative="1" as="geometry">
            <mxPoint x="-3" as="offset" />
          </mxGeometry>
        </mxCell>
        <mxCell id="Fmh4cS3P_eQ8kJ_-uKX7-83" value="1" style="edgeLabel;html=1;align=center;verticalAlign=middle;resizable=0;points=[];" vertex="1" connectable="0" parent="Fmh4cS3P_eQ8kJ_-uKX7-74">
          <mxGeometry x="0.8384" y="-2" relative="1" as="geometry">
            <mxPoint as="offset" />
          </mxGeometry>
        </mxCell>
        <mxCell id="Fmh4cS3P_eQ8kJ_-uKX7-88" style="edgeStyle=orthogonalEdgeStyle;rounded=0;orthogonalLoop=1;jettySize=auto;html=1;entryX=0.25;entryY=1;entryDx=0;entryDy=0;" edge="1" parent="WIyWlLk6GJQsqaUBKTNV-1" source="Fmh4cS3P_eQ8kJ_-uKX7-50" target="Fmh4cS3P_eQ8kJ_-uKX7-70">
          <mxGeometry relative="1" as="geometry" />
        </mxCell>
        <mxCell id="Fmh4cS3P_eQ8kJ_-uKX7-89" value="*" style="edgeLabel;html=1;align=center;verticalAlign=middle;resizable=0;points=[];" vertex="1" connectable="0" parent="Fmh4cS3P_eQ8kJ_-uKX7-88">
          <mxGeometry x="-0.9537" y="2" relative="1" as="geometry">
            <mxPoint as="offset" />
          </mxGeometry>
        </mxCell>
        <mxCell id="Fmh4cS3P_eQ8kJ_-uKX7-90" value="*" style="edgeLabel;html=1;align=center;verticalAlign=middle;resizable=0;points=[];" vertex="1" connectable="0" parent="Fmh4cS3P_eQ8kJ_-uKX7-88">
          <mxGeometry x="0.9476" y="1" relative="1" as="geometry">
            <mxPoint as="offset" />
          </mxGeometry>
        </mxCell>
        <mxCell id="Fmh4cS3P_eQ8kJ_-uKX7-91" value="Favourite&lt;div&gt;Events&lt;/div&gt;" style="edgeLabel;html=1;align=center;verticalAlign=middle;resizable=0;points=[];" vertex="1" connectable="0" parent="Fmh4cS3P_eQ8kJ_-uKX7-88">
          <mxGeometry x="0.8767" y="1" relative="1" as="geometry">
            <mxPoint as="offset" />
          </mxGeometry>
        </mxCell>
        <mxCell id="Fmh4cS3P_eQ8kJ_-uKX7-156" style="edgeStyle=orthogonalEdgeStyle;rounded=0;orthogonalLoop=1;jettySize=auto;html=1;entryX=0.75;entryY=0;entryDx=0;entryDy=0;" edge="1" parent="WIyWlLk6GJQsqaUBKTNV-1" source="Fmh4cS3P_eQ8kJ_-uKX7-92" target="Fmh4cS3P_eQ8kJ_-uKX7-56">
          <mxGeometry relative="1" as="geometry" />
        </mxCell>
        <mxCell id="Fmh4cS3P_eQ8kJ_-uKX7-157" value="Recommended&lt;br&gt;Product&lt;br&gt;Categories" style="edgeLabel;html=1;align=center;verticalAlign=middle;resizable=0;points=[];" vertex="1" connectable="0" parent="Fmh4cS3P_eQ8kJ_-uKX7-156">
          <mxGeometry x="0.9343" relative="1" as="geometry">
            <mxPoint y="-102" as="offset" />
          </mxGeometry>
        </mxCell>
        <mxCell id="Fmh4cS3P_eQ8kJ_-uKX7-158" value="*" style="edgeLabel;html=1;align=center;verticalAlign=middle;resizable=0;points=[];" vertex="1" connectable="0" parent="Fmh4cS3P_eQ8kJ_-uKX7-156">
          <mxGeometry x="0.9295" y="2" relative="1" as="geometry">
            <mxPoint x="-2" as="offset" />
          </mxGeometry>
        </mxCell>
        <mxCell id="Fmh4cS3P_eQ8kJ_-uKX7-159" value="*" style="edgeLabel;html=1;align=center;verticalAlign=middle;resizable=0;points=[];" vertex="1" connectable="0" parent="Fmh4cS3P_eQ8kJ_-uKX7-156">
          <mxGeometry x="-0.9448" relative="1" as="geometry">
            <mxPoint as="offset" />
          </mxGeometry>
        </mxCell>
        <mxCell id="Fmh4cS3P_eQ8kJ_-uKX7-160" style="edgeStyle=orthogonalEdgeStyle;rounded=0;orthogonalLoop=1;jettySize=auto;html=1;" edge="1" parent="WIyWlLk6GJQsqaUBKTNV-1" source="Fmh4cS3P_eQ8kJ_-uKX7-92">
          <mxGeometry relative="1" as="geometry">
            <mxPoint x="110" y="450" as="targetPoint" />
            <Array as="points">
              <mxPoint x="160" y="-550" />
              <mxPoint x="160" y="450" />
            </Array>
          </mxGeometry>
        </mxCell>
        <mxCell id="Fmh4cS3P_eQ8kJ_-uKX7-161" value="Recomennded&lt;br&gt;Service&lt;br&gt;Categories" style="edgeLabel;html=1;align=center;verticalAlign=middle;resizable=0;points=[];" vertex="1" connectable="0" parent="Fmh4cS3P_eQ8kJ_-uKX7-160">
          <mxGeometry x="0.9506" y="-1" relative="1" as="geometry">
            <mxPoint x="34" y="-44" as="offset" />
          </mxGeometry>
        </mxCell>
        <mxCell id="Fmh4cS3P_eQ8kJ_-uKX7-162" value="*" style="edgeLabel;html=1;align=center;verticalAlign=middle;resizable=0;points=[];" vertex="1" connectable="0" parent="Fmh4cS3P_eQ8kJ_-uKX7-160">
          <mxGeometry x="0.9389" y="1" relative="1" as="geometry">
            <mxPoint as="offset" />
          </mxGeometry>
        </mxCell>
        <mxCell id="Fmh4cS3P_eQ8kJ_-uKX7-163" value="*" style="edgeLabel;html=1;align=center;verticalAlign=middle;resizable=0;points=[];" vertex="1" connectable="0" parent="Fmh4cS3P_eQ8kJ_-uKX7-160">
          <mxGeometry x="-0.8783" relative="1" as="geometry">
            <mxPoint as="offset" />
          </mxGeometry>
        </mxCell>
        <mxCell id="Fmh4cS3P_eQ8kJ_-uKX7-92" value="EventType" style="swimlane;fontStyle=0;align=center;verticalAlign=top;childLayout=stackLayout;horizontal=1;startSize=26;horizontalStack=0;resizeParent=1;resizeLast=0;collapsible=1;marginBottom=0;rounded=0;shadow=0;strokeWidth=1;" vertex="1" parent="WIyWlLk6GJQsqaUBKTNV-1">
          <mxGeometry x="190" y="-659" width="160" height="150" as="geometry">
            <mxRectangle x="550" y="140" width="160" height="26" as="alternateBounds" />
          </mxGeometry>
        </mxCell>
        <mxCell id="Fmh4cS3P_eQ8kJ_-uKX7-153" value="Name" style="text;align=left;verticalAlign=top;spacingLeft=4;spacingRight=4;overflow=hidden;rotatable=0;points=[[0,0.5],[1,0.5]];portConstraint=eastwest;rounded=0;shadow=0;html=0;" vertex="1" parent="Fmh4cS3P_eQ8kJ_-uKX7-92">
          <mxGeometry y="26" width="160" height="26" as="geometry" />
        </mxCell>
        <mxCell id="Fmh4cS3P_eQ8kJ_-uKX7-154" value="Description" style="text;align=left;verticalAlign=top;spacingLeft=4;spacingRight=4;overflow=hidden;rotatable=0;points=[[0,0.5],[1,0.5]];portConstraint=eastwest;rounded=0;shadow=0;html=0;" vertex="1" parent="Fmh4cS3P_eQ8kJ_-uKX7-92">
          <mxGeometry y="52" width="160" height="26" as="geometry" />
        </mxCell>
        <mxCell id="Fmh4cS3P_eQ8kJ_-uKX7-164" value="IsActive" style="text;align=left;verticalAlign=top;spacingLeft=4;spacingRight=4;overflow=hidden;rotatable=0;points=[[0,0.5],[1,0.5]];portConstraint=eastwest;rounded=0;shadow=0;html=0;" vertex="1" parent="Fmh4cS3P_eQ8kJ_-uKX7-92">
          <mxGeometry y="78" width="160" height="26" as="geometry" />
        </mxCell>
        <mxCell id="Fmh4cS3P_eQ8kJ_-uKX7-93" value="" style="line;html=1;strokeWidth=1;align=left;verticalAlign=middle;spacingTop=-1;spacingLeft=3;spacingRight=3;rotatable=0;labelPosition=right;points=[];portConstraint=eastwest;" vertex="1" parent="Fmh4cS3P_eQ8kJ_-uKX7-92">
          <mxGeometry y="104" width="160" height="8" as="geometry" />
        </mxCell>
        <mxCell id="Fmh4cS3P_eQ8kJ_-uKX7-111" style="edgeStyle=orthogonalEdgeStyle;rounded=0;orthogonalLoop=1;jettySize=auto;html=1;entryX=0.188;entryY=0;entryDx=0;entryDy=0;entryPerimeter=0;" edge="1" parent="WIyWlLk6GJQsqaUBKTNV-1" source="Fmh4cS3P_eQ8kJ_-uKX7-11" target="Fmh4cS3P_eQ8kJ_-uKX7-64">
          <mxGeometry relative="1" as="geometry">
            <mxPoint x="251" y="150" as="targetPoint" />
          </mxGeometry>
        </mxCell>
        <mxCell id="Fmh4cS3P_eQ8kJ_-uKX7-113" value="*" style="edgeLabel;html=1;align=center;verticalAlign=middle;resizable=0;points=[];" vertex="1" connectable="0" parent="Fmh4cS3P_eQ8kJ_-uKX7-111">
          <mxGeometry x="0.7507" y="-1" relative="1" as="geometry">
            <mxPoint x="94" y="-1" as="offset" />
          </mxGeometry>
        </mxCell>
        <mxCell id="Fmh4cS3P_eQ8kJ_-uKX7-116" value="*" style="edgeLabel;html=1;align=center;verticalAlign=middle;resizable=0;points=[];" vertex="1" connectable="0" parent="Fmh4cS3P_eQ8kJ_-uKX7-111">
          <mxGeometry x="-0.936" relative="1" as="geometry">
            <mxPoint as="offset" />
          </mxGeometry>
        </mxCell>
        <mxCell id="Fmh4cS3P_eQ8kJ_-uKX7-117" value="Favourite&lt;div&gt;Products&lt;/div&gt;" style="edgeLabel;html=1;align=center;verticalAlign=middle;resizable=0;points=[];" vertex="1" connectable="0" parent="Fmh4cS3P_eQ8kJ_-uKX7-111">
          <mxGeometry x="0.5907" relative="1" as="geometry">
            <mxPoint x="113" as="offset" />
          </mxGeometry>
        </mxCell>
        <mxCell id="Fmh4cS3P_eQ8kJ_-uKX7-112" style="edgeStyle=orthogonalEdgeStyle;rounded=0;orthogonalLoop=1;jettySize=auto;html=1;exitX=0.75;exitY=1;exitDx=0;exitDy=0;" edge="1" parent="WIyWlLk6GJQsqaUBKTNV-1" source="Fmh4cS3P_eQ8kJ_-uKX7-9">
          <mxGeometry relative="1" as="geometry">
            <mxPoint x="293" y="910" as="targetPoint" />
            <Array as="points">
              <mxPoint x="-580" y="1240" />
              <mxPoint x="293" y="1240" />
            </Array>
            <mxPoint x="-580" y="360" as="sourcePoint" />
          </mxGeometry>
        </mxCell>
        <mxCell id="Fmh4cS3P_eQ8kJ_-uKX7-115" value="*" style="edgeLabel;html=1;align=center;verticalAlign=middle;resizable=0;points=[];" vertex="1" connectable="0" parent="Fmh4cS3P_eQ8kJ_-uKX7-112">
          <mxGeometry x="-0.9581" relative="1" as="geometry">
            <mxPoint y="23" as="offset" />
          </mxGeometry>
        </mxCell>
        <mxCell id="Fmh4cS3P_eQ8kJ_-uKX7-118" value="Favourite&lt;br&gt;Services" style="edgeLabel;html=1;align=center;verticalAlign=middle;resizable=0;points=[];" vertex="1" connectable="0" parent="Fmh4cS3P_eQ8kJ_-uKX7-112">
          <mxGeometry x="0.6645" y="-2" relative="1" as="geometry">
            <mxPoint x="43" y="-112" as="offset" />
          </mxGeometry>
        </mxCell>
        <mxCell id="rpGaOk7rnE4ZSk3WpupD-90" value="*" style="edgeLabel;html=1;align=center;verticalAlign=middle;resizable=0;points=[];" connectable="0" vertex="1" parent="Fmh4cS3P_eQ8kJ_-uKX7-112">
          <mxGeometry x="0.8713" y="1" relative="1" as="geometry">
            <mxPoint as="offset" />
          </mxGeometry>
        </mxCell>
        <mxCell id="rpGaOk7rnE4ZSk3WpupD-12" style="edgeStyle=orthogonalEdgeStyle;rounded=0;orthogonalLoop=1;jettySize=auto;html=1;entryX=0.25;entryY=1;entryDx=0;entryDy=0;" edge="1" parent="WIyWlLk6GJQsqaUBKTNV-1" source="Fmh4cS3P_eQ8kJ_-uKX7-124" target="Fmh4cS3P_eQ8kJ_-uKX7-60">
          <mxGeometry relative="1" as="geometry">
            <Array as="points">
              <mxPoint x="-1030" y="750" />
              <mxPoint x="-10" y="750" />
            </Array>
          </mxGeometry>
        </mxCell>
        <mxCell id="rpGaOk7rnE4ZSk3WpupD-13" value="0..1" style="edgeLabel;html=1;align=center;verticalAlign=middle;resizable=0;points=[];" connectable="0" vertex="1" parent="rpGaOk7rnE4ZSk3WpupD-12">
          <mxGeometry x="0.9717" y="2" relative="1" as="geometry">
            <mxPoint as="offset" />
          </mxGeometry>
        </mxCell>
        <mxCell id="rpGaOk7rnE4ZSk3WpupD-14" value="*" style="edgeLabel;html=1;align=center;verticalAlign=middle;resizable=0;points=[];" connectable="0" vertex="1" parent="rpGaOk7rnE4ZSk3WpupD-12">
          <mxGeometry x="-0.9478" y="-1" relative="1" as="geometry">
            <mxPoint as="offset" />
          </mxGeometry>
        </mxCell>
        <mxCell id="rpGaOk7rnE4ZSk3WpupD-42" style="edgeStyle=orthogonalEdgeStyle;rounded=0;orthogonalLoop=1;jettySize=auto;html=1;entryX=0;entryY=0.5;entryDx=0;entryDy=0;" edge="1" parent="WIyWlLk6GJQsqaUBKTNV-1" source="Fmh4cS3P_eQ8kJ_-uKX7-124" target="Fmh4cS3P_eQ8kJ_-uKX7-56">
          <mxGeometry relative="1" as="geometry">
            <Array as="points">
              <mxPoint x="-980" y="245" />
            </Array>
          </mxGeometry>
        </mxCell>
        <mxCell id="rpGaOk7rnE4ZSk3WpupD-43" value="*" style="edgeLabel;html=1;align=center;verticalAlign=middle;resizable=0;points=[];" connectable="0" vertex="1" parent="rpGaOk7rnE4ZSk3WpupD-42">
          <mxGeometry x="-0.9126" relative="1" as="geometry">
            <mxPoint as="offset" />
          </mxGeometry>
        </mxCell>
        <mxCell id="rpGaOk7rnE4ZSk3WpupD-44" value="0..1" style="edgeLabel;html=1;align=center;verticalAlign=middle;resizable=0;points=[];" connectable="0" vertex="1" parent="rpGaOk7rnE4ZSk3WpupD-42">
          <mxGeometry x="0.905" y="2" relative="1" as="geometry">
            <mxPoint as="offset" />
          </mxGeometry>
        </mxCell>
        <mxCell id="Fmh4cS3P_eQ8kJ_-uKX7-124" value="Notification" style="swimlane;fontStyle=0;align=center;verticalAlign=top;childLayout=stackLayout;horizontal=1;startSize=26;horizontalStack=0;resizeParent=1;resizeLast=0;collapsible=1;marginBottom=0;rounded=0;shadow=0;strokeWidth=1;" vertex="1" parent="WIyWlLk6GJQsqaUBKTNV-1">
          <mxGeometry x="-1100" y="-50" width="170" height="210" as="geometry">
            <mxRectangle x="550" y="140" width="160" height="26" as="alternateBounds" />
          </mxGeometry>
        </mxCell>
        <mxCell id="Fmh4cS3P_eQ8kJ_-uKX7-125" value="IsSeen" style="text;align=left;verticalAlign=top;spacingLeft=4;spacingRight=4;overflow=hidden;rotatable=0;points=[[0,0.5],[1,0.5]];portConstraint=eastwest;" vertex="1" parent="Fmh4cS3P_eQ8kJ_-uKX7-124">
          <mxGeometry y="26" width="170" height="26" as="geometry" />
        </mxCell>
        <mxCell id="Fmh4cS3P_eQ8kJ_-uKX7-126" value="Date" style="text;align=left;verticalAlign=top;spacingLeft=4;spacingRight=4;overflow=hidden;rotatable=0;points=[[0,0.5],[1,0.5]];portConstraint=eastwest;rounded=0;shadow=0;html=0;" vertex="1" parent="Fmh4cS3P_eQ8kJ_-uKX7-124">
          <mxGeometry y="52" width="170" height="26" as="geometry" />
        </mxCell>
        <mxCell id="Fmh4cS3P_eQ8kJ_-uKX7-147" value="Message" style="text;align=left;verticalAlign=top;spacingLeft=4;spacingRight=4;overflow=hidden;rotatable=0;points=[[0,0.5],[1,0.5]];portConstraint=eastwest;rounded=0;shadow=0;html=0;" vertex="1" parent="Fmh4cS3P_eQ8kJ_-uKX7-124">
          <mxGeometry y="78" width="170" height="26" as="geometry" />
        </mxCell>
        <mxCell id="rpGaOk7rnE4ZSk3WpupD-80" value="Title" style="text;align=left;verticalAlign=top;spacingLeft=4;spacingRight=4;overflow=hidden;rotatable=0;points=[[0,0.5],[1,0.5]];portConstraint=eastwest;rounded=0;shadow=0;html=0;" vertex="1" parent="Fmh4cS3P_eQ8kJ_-uKX7-124">
          <mxGeometry y="104" width="170" height="26" as="geometry" />
        </mxCell>
        <mxCell id="rpGaOk7rnE4ZSk3WpupD-83" value="WebRedirect" style="text;align=left;verticalAlign=top;spacingLeft=4;spacingRight=4;overflow=hidden;rotatable=0;points=[[0,0.5],[1,0.5]];portConstraint=eastwest;rounded=0;shadow=0;html=0;" vertex="1" parent="Fmh4cS3P_eQ8kJ_-uKX7-124">
          <mxGeometry y="130" width="170" height="26" as="geometry" />
        </mxCell>
        <mxCell id="rpGaOk7rnE4ZSk3WpupD-84" value="MobileRedirect" style="text;align=left;verticalAlign=top;spacingLeft=4;spacingRight=4;overflow=hidden;rotatable=0;points=[[0,0.5],[1,0.5]];portConstraint=eastwest;rounded=0;shadow=0;html=0;" vertex="1" parent="Fmh4cS3P_eQ8kJ_-uKX7-124">
          <mxGeometry y="156" width="170" height="26" as="geometry" />
        </mxCell>
        <mxCell id="Fmh4cS3P_eQ8kJ_-uKX7-127" value="" style="line;html=1;strokeWidth=1;align=left;verticalAlign=middle;spacingTop=-1;spacingLeft=3;spacingRight=3;rotatable=0;labelPosition=right;points=[];portConstraint=eastwest;" vertex="1" parent="Fmh4cS3P_eQ8kJ_-uKX7-124">
          <mxGeometry y="182" width="170" height="8" as="geometry" />
        </mxCell>
        <mxCell id="Fmh4cS3P_eQ8kJ_-uKX7-129" style="edgeStyle=orthogonalEdgeStyle;rounded=0;orthogonalLoop=1;jettySize=auto;html=1;entryX=0;entryY=0.5;entryDx=0;entryDy=0;" edge="1" parent="WIyWlLk6GJQsqaUBKTNV-1" source="Fmh4cS3P_eQ8kJ_-uKX7-126" target="Fmh4cS3P_eQ8kJ_-uKX7-11">
          <mxGeometry relative="1" as="geometry" />
        </mxCell>
        <mxCell id="Fmh4cS3P_eQ8kJ_-uKX7-130" value="*" style="edgeLabel;html=1;align=center;verticalAlign=middle;resizable=0;points=[];" vertex="1" connectable="0" parent="Fmh4cS3P_eQ8kJ_-uKX7-129">
          <mxGeometry x="-0.7528" relative="1" as="geometry">
            <mxPoint as="offset" />
          </mxGeometry>
        </mxCell>
        <mxCell id="Fmh4cS3P_eQ8kJ_-uKX7-131" value="1" style="edgeLabel;html=1;align=center;verticalAlign=middle;resizable=0;points=[];" vertex="1" connectable="0" parent="Fmh4cS3P_eQ8kJ_-uKX7-129">
          <mxGeometry x="0.7461" y="1" relative="1" as="geometry">
            <mxPoint as="offset" />
          </mxGeometry>
        </mxCell>
        <mxCell id="rpGaOk7rnE4ZSk3WpupD-133" value="0..1" style="edgeStyle=orthogonalEdgeStyle;rounded=0;orthogonalLoop=1;jettySize=auto;html=1;entryX=0;entryY=0.5;entryDx=0;entryDy=0;" edge="1" parent="WIyWlLk6GJQsqaUBKTNV-1" source="Fmh4cS3P_eQ8kJ_-uKX7-132" target="rpGaOk7rnE4ZSk3WpupD-129">
          <mxGeometry x="0.8039" relative="1" as="geometry">
            <Array as="points">
              <mxPoint x="-1790" y="915" />
              <mxPoint x="-1790" y="1245" />
            </Array>
            <mxPoint as="offset" />
          </mxGeometry>
        </mxCell>
        <mxCell id="rpGaOk7rnE4ZSk3WpupD-139" value="*" style="edgeLabel;html=1;align=center;verticalAlign=middle;resizable=0;points=[];" connectable="0" vertex="1" parent="rpGaOk7rnE4ZSk3WpupD-133">
          <mxGeometry x="-0.8797" relative="1" as="geometry">
            <mxPoint as="offset" />
          </mxGeometry>
        </mxCell>
        <mxCell id="rpGaOk7rnE4ZSk3WpupD-134" style="edgeStyle=orthogonalEdgeStyle;rounded=0;orthogonalLoop=1;jettySize=auto;html=1;" edge="1" parent="WIyWlLk6GJQsqaUBKTNV-1" source="Fmh4cS3P_eQ8kJ_-uKX7-132" target="rpGaOk7rnE4ZSk3WpupD-127">
          <mxGeometry relative="1" as="geometry">
            <Array as="points">
              <mxPoint x="-2020" y="1120" />
              <mxPoint x="-2020" y="1120" />
            </Array>
          </mxGeometry>
        </mxCell>
        <mxCell id="rpGaOk7rnE4ZSk3WpupD-135" value="0..1" style="edgeLabel;html=1;align=center;verticalAlign=middle;resizable=0;points=[];" connectable="0" vertex="1" parent="rpGaOk7rnE4ZSk3WpupD-134">
          <mxGeometry x="0.7143" y="1" relative="1" as="geometry">
            <mxPoint as="offset" />
          </mxGeometry>
        </mxCell>
        <mxCell id="rpGaOk7rnE4ZSk3WpupD-136" value="*" style="edgeLabel;html=1;align=center;verticalAlign=middle;resizable=0;points=[];" connectable="0" vertex="1" parent="rpGaOk7rnE4ZSk3WpupD-134">
          <mxGeometry x="-0.746" y="-3" relative="1" as="geometry">
            <mxPoint as="offset" />
          </mxGeometry>
        </mxCell>
        <mxCell id="rpGaOk7rnE4ZSk3WpupD-143" style="edgeStyle=orthogonalEdgeStyle;rounded=0;orthogonalLoop=1;jettySize=auto;html=1;entryX=0;entryY=0.5;entryDx=0;entryDy=0;" edge="1" parent="WIyWlLk6GJQsqaUBKTNV-1" source="Fmh4cS3P_eQ8kJ_-uKX7-132" target="rpGaOk7rnE4ZSk3WpupD-124">
          <mxGeometry relative="1" as="geometry" />
        </mxCell>
        <mxCell id="rpGaOk7rnE4ZSk3WpupD-145" value="1" style="edgeLabel;html=1;align=center;verticalAlign=middle;resizable=0;points=[];" connectable="0" vertex="1" parent="rpGaOk7rnE4ZSk3WpupD-143">
          <mxGeometry x="0.8464" relative="1" as="geometry">
            <mxPoint as="offset" />
          </mxGeometry>
        </mxCell>
        <mxCell id="rpGaOk7rnE4ZSk3WpupD-147" value="*" style="edgeLabel;html=1;align=center;verticalAlign=middle;resizable=0;points=[];" connectable="0" vertex="1" parent="rpGaOk7rnE4ZSk3WpupD-143">
          <mxGeometry x="-0.8656" y="-2" relative="1" as="geometry">
            <mxPoint as="offset" />
          </mxGeometry>
        </mxCell>
        <mxCell id="Fmh4cS3P_eQ8kJ_-uKX7-132" value="Comment" style="swimlane;fontStyle=0;align=center;verticalAlign=top;childLayout=stackLayout;horizontal=1;startSize=26;horizontalStack=0;resizeParent=1;resizeLast=0;collapsible=1;marginBottom=0;rounded=0;shadow=0;strokeWidth=1;" vertex="1" parent="WIyWlLk6GJQsqaUBKTNV-1">
          <mxGeometry x="-2040" y="840" width="160" height="150" as="geometry">
            <mxRectangle x="550" y="140" width="160" height="26" as="alternateBounds" />
          </mxGeometry>
        </mxCell>
        <mxCell id="rpGaOk7rnE4ZSk3WpupD-108" value="Message" style="text;align=left;verticalAlign=top;spacingLeft=4;spacingRight=4;overflow=hidden;rotatable=0;points=[[0,0.5],[1,0.5]];portConstraint=eastwest;rounded=0;shadow=0;html=0;" vertex="1" parent="Fmh4cS3P_eQ8kJ_-uKX7-132">
          <mxGeometry y="26" width="160" height="26" as="geometry" />
        </mxCell>
        <mxCell id="rpGaOk7rnE4ZSk3WpupD-200" value="status : PendingStatus" style="text;align=left;verticalAlign=top;spacingLeft=4;spacingRight=4;overflow=hidden;rotatable=0;points=[[0,0.5],[1,0.5]];portConstraint=eastwest;rounded=0;shadow=0;html=0;" vertex="1" parent="Fmh4cS3P_eQ8kJ_-uKX7-132">
          <mxGeometry y="52" width="160" height="26" as="geometry" />
        </mxCell>
        <mxCell id="Fmh4cS3P_eQ8kJ_-uKX7-135" value="" style="line;html=1;strokeWidth=1;align=left;verticalAlign=middle;spacingTop=-1;spacingLeft=3;spacingRight=3;rotatable=0;labelPosition=right;points=[];portConstraint=eastwest;" vertex="1" parent="Fmh4cS3P_eQ8kJ_-uKX7-132">
          <mxGeometry y="78" width="160" height="8" as="geometry" />
        </mxCell>
        <mxCell id="rpGaOk7rnE4ZSk3WpupD-132" style="edgeStyle=orthogonalEdgeStyle;rounded=0;orthogonalLoop=1;jettySize=auto;html=1;entryX=0.75;entryY=1;entryDx=0;entryDy=0;" edge="1" parent="WIyWlLk6GJQsqaUBKTNV-1" source="Fmh4cS3P_eQ8kJ_-uKX7-136" target="rpGaOk7rnE4ZSk3WpupD-127">
          <mxGeometry relative="1" as="geometry">
            <Array as="points">
              <mxPoint x="-1360" y="905" />
              <mxPoint x="-1360" y="1430" />
              <mxPoint x="-1970" y="1430" />
            </Array>
          </mxGeometry>
        </mxCell>
        <mxCell id="rpGaOk7rnE4ZSk3WpupD-140" value="0..1" style="edgeLabel;html=1;align=center;verticalAlign=middle;resizable=0;points=[];" connectable="0" vertex="1" parent="rpGaOk7rnE4ZSk3WpupD-132">
          <mxGeometry x="0.8586" y="-1" relative="1" as="geometry">
            <mxPoint as="offset" />
          </mxGeometry>
        </mxCell>
        <mxCell id="rpGaOk7rnE4ZSk3WpupD-141" value="*" style="edgeLabel;html=1;align=center;verticalAlign=middle;resizable=0;points=[];" connectable="0" vertex="1" parent="rpGaOk7rnE4ZSk3WpupD-132">
          <mxGeometry x="-0.8979" y="-1" relative="1" as="geometry">
            <mxPoint as="offset" />
          </mxGeometry>
        </mxCell>
        <mxCell id="rpGaOk7rnE4ZSk3WpupD-144" style="edgeStyle=orthogonalEdgeStyle;rounded=0;orthogonalLoop=1;jettySize=auto;html=1;entryX=1;entryY=0.5;entryDx=0;entryDy=0;" edge="1" parent="WIyWlLk6GJQsqaUBKTNV-1" source="Fmh4cS3P_eQ8kJ_-uKX7-136" target="rpGaOk7rnE4ZSk3WpupD-124">
          <mxGeometry relative="1" as="geometry" />
        </mxCell>
        <mxCell id="rpGaOk7rnE4ZSk3WpupD-146" value="1" style="edgeLabel;html=1;align=center;verticalAlign=middle;resizable=0;points=[];" connectable="0" vertex="1" parent="rpGaOk7rnE4ZSk3WpupD-144">
          <mxGeometry x="0.8246" y="3" relative="1" as="geometry">
            <mxPoint as="offset" />
          </mxGeometry>
        </mxCell>
        <mxCell id="rpGaOk7rnE4ZSk3WpupD-148" value="*" style="edgeLabel;html=1;align=center;verticalAlign=middle;resizable=0;points=[];" connectable="0" vertex="1" parent="rpGaOk7rnE4ZSk3WpupD-144">
          <mxGeometry x="-0.8597" y="-1" relative="1" as="geometry">
            <mxPoint as="offset" />
          </mxGeometry>
        </mxCell>
        <mxCell id="Fmh4cS3P_eQ8kJ_-uKX7-136" value="Review" style="swimlane;fontStyle=0;align=center;verticalAlign=top;childLayout=stackLayout;horizontal=1;startSize=26;horizontalStack=0;resizeParent=1;resizeLast=0;collapsible=1;marginBottom=0;rounded=0;shadow=0;strokeWidth=1;" vertex="1" parent="WIyWlLk6GJQsqaUBKTNV-1">
          <mxGeometry x="-1720" y="830" width="160" height="150" as="geometry">
            <mxRectangle x="550" y="140" width="160" height="26" as="alternateBounds" />
          </mxGeometry>
        </mxCell>
        <mxCell id="rpGaOk7rnE4ZSk3WpupD-109" value="Grade" style="text;align=left;verticalAlign=top;spacingLeft=4;spacingRight=4;overflow=hidden;rotatable=0;points=[[0,0.5],[1,0.5]];portConstraint=eastwest;rounded=0;shadow=0;html=0;" vertex="1" parent="Fmh4cS3P_eQ8kJ_-uKX7-136">
          <mxGeometry y="26" width="160" height="26" as="geometry" />
        </mxCell>
        <mxCell id="Fmh4cS3P_eQ8kJ_-uKX7-137" value="" style="line;html=1;strokeWidth=1;align=left;verticalAlign=middle;spacingTop=-1;spacingLeft=3;spacingRight=3;rotatable=0;labelPosition=right;points=[];portConstraint=eastwest;" vertex="1" parent="Fmh4cS3P_eQ8kJ_-uKX7-136">
          <mxGeometry y="52" width="160" height="8" as="geometry" />
        </mxCell>
        <mxCell id="Fmh4cS3P_eQ8kJ_-uKX7-138" value="Guest (AK)" style="swimlane;fontStyle=0;align=center;verticalAlign=top;childLayout=stackLayout;horizontal=1;startSize=26;horizontalStack=0;resizeParent=1;resizeLast=0;collapsible=1;marginBottom=0;rounded=0;shadow=0;strokeWidth=1;" vertex="1" parent="WIyWlLk6GJQsqaUBKTNV-1">
          <mxGeometry x="-1050" y="-400" width="160" height="290" as="geometry">
            <mxRectangle x="550" y="140" width="160" height="26" as="alternateBounds" />
          </mxGeometry>
        </mxCell>
        <mxCell id="Fmh4cS3P_eQ8kJ_-uKX7-139" value="" style="line;html=1;strokeWidth=1;align=left;verticalAlign=middle;spacingTop=-1;spacingLeft=3;spacingRight=3;rotatable=0;labelPosition=right;points=[];portConstraint=eastwest;" vertex="1" parent="Fmh4cS3P_eQ8kJ_-uKX7-138">
          <mxGeometry y="26" width="160" height="8" as="geometry" />
        </mxCell>
        <mxCell id="Fmh4cS3P_eQ8kJ_-uKX7-140" style="edgeStyle=orthogonalEdgeStyle;rounded=0;orthogonalLoop=1;jettySize=auto;html=1;entryX=0.084;entryY=0.003;entryDx=0;entryDy=0;entryPerimeter=0;" edge="1" parent="WIyWlLk6GJQsqaUBKTNV-1" source="Fmh4cS3P_eQ8kJ_-uKX7-138" target="Fmh4cS3P_eQ8kJ_-uKX7-9">
          <mxGeometry relative="1" as="geometry">
            <Array as="points">
              <mxPoint x="-970" y="-70" />
              <mxPoint x="-687" y="-70" />
            </Array>
          </mxGeometry>
        </mxCell>
        <mxCell id="Fmh4cS3P_eQ8kJ_-uKX7-141" value="1" style="edgeLabel;html=1;align=center;verticalAlign=middle;resizable=0;points=[];" vertex="1" connectable="0" parent="Fmh4cS3P_eQ8kJ_-uKX7-140">
          <mxGeometry x="0.8643" y="-1" relative="1" as="geometry">
            <mxPoint as="offset" />
          </mxGeometry>
        </mxCell>
        <mxCell id="Fmh4cS3P_eQ8kJ_-uKX7-142" value="1" style="edgeLabel;html=1;align=center;verticalAlign=middle;resizable=0;points=[];" vertex="1" connectable="0" parent="Fmh4cS3P_eQ8kJ_-uKX7-140">
          <mxGeometry x="-0.9323" relative="1" as="geometry">
            <mxPoint as="offset" />
          </mxGeometry>
        </mxCell>
        <mxCell id="Fmh4cS3P_eQ8kJ_-uKX7-143" style="edgeStyle=orthogonalEdgeStyle;rounded=0;orthogonalLoop=1;jettySize=auto;html=1;entryX=0;entryY=0.133;entryDx=0;entryDy=0;entryPerimeter=0;" edge="1" parent="WIyWlLk6GJQsqaUBKTNV-1" source="Fmh4cS3P_eQ8kJ_-uKX7-138" target="Fmh4cS3P_eQ8kJ_-uKX7-70">
          <mxGeometry relative="1" as="geometry">
            <Array as="points">
              <mxPoint x="-970" y="-820" />
            </Array>
          </mxGeometry>
        </mxCell>
        <mxCell id="Fmh4cS3P_eQ8kJ_-uKX7-144" value="Invited&lt;div&gt;Events&lt;/div&gt;" style="edgeLabel;html=1;align=center;verticalAlign=middle;resizable=0;points=[];" vertex="1" connectable="0" parent="Fmh4cS3P_eQ8kJ_-uKX7-143">
          <mxGeometry x="0.839" y="-2" relative="1" as="geometry">
            <mxPoint as="offset" />
          </mxGeometry>
        </mxCell>
        <mxCell id="Fmh4cS3P_eQ8kJ_-uKX7-145" value="*" style="edgeLabel;html=1;align=center;verticalAlign=middle;resizable=0;points=[];" vertex="1" connectable="0" parent="Fmh4cS3P_eQ8kJ_-uKX7-143">
          <mxGeometry x="0.9428" relative="1" as="geometry">
            <mxPoint as="offset" />
          </mxGeometry>
        </mxCell>
        <mxCell id="Fmh4cS3P_eQ8kJ_-uKX7-146" value="*" style="edgeLabel;html=1;align=center;verticalAlign=middle;resizable=0;points=[];" vertex="1" connectable="0" parent="Fmh4cS3P_eQ8kJ_-uKX7-143">
          <mxGeometry x="-0.9606" y="1" relative="1" as="geometry">
            <mxPoint as="offset" />
          </mxGeometry>
        </mxCell>
        <mxCell id="Fmh4cS3P_eQ8kJ_-uKX7-149" value="Da li pozivnica da bude posebna klasa?" style="ellipse;shape=cloud;whiteSpace=wrap;html=1;" vertex="1" parent="WIyWlLk6GJQsqaUBKTNV-1">
          <mxGeometry x="-1490" y="-2540" width="380" height="270" as="geometry" />
        </mxCell>
        <mxCell id="Fmh4cS3P_eQ8kJ_-uKX7-165" value="Tip dogadjaja za dati dogadjaj da bude null ako je tipa all?" style="ellipse;shape=cloud;whiteSpace=wrap;html=1;" vertex="1" parent="WIyWlLk6GJQsqaUBKTNV-1">
          <mxGeometry x="-1600" y="-2100" width="450" height="270" as="geometry" />
        </mxCell>
        <mxCell id="Fmh4cS3P_eQ8kJ_-uKX7-166" style="edgeStyle=orthogonalEdgeStyle;rounded=0;orthogonalLoop=1;jettySize=auto;html=1;entryX=0.005;entryY=0.119;entryDx=0;entryDy=0;entryPerimeter=0;" edge="1" parent="WIyWlLk6GJQsqaUBKTNV-1" source="Fmh4cS3P_eQ8kJ_-uKX7-119" target="Fmh4cS3P_eQ8kJ_-uKX7-92">
          <mxGeometry relative="1" as="geometry" />
        </mxCell>
        <mxCell id="Fmh4cS3P_eQ8kJ_-uKX7-167" value="*" style="edgeLabel;html=1;align=center;verticalAlign=middle;resizable=0;points=[];" vertex="1" connectable="0" parent="Fmh4cS3P_eQ8kJ_-uKX7-166">
          <mxGeometry x="-0.7167" y="2" relative="1" as="geometry">
            <mxPoint as="offset" />
          </mxGeometry>
        </mxCell>
        <mxCell id="Fmh4cS3P_eQ8kJ_-uKX7-168" value="0..1" style="edgeLabel;html=1;align=center;verticalAlign=middle;resizable=0;points=[];" vertex="1" connectable="0" parent="Fmh4cS3P_eQ8kJ_-uKX7-166">
          <mxGeometry x="0.5373" y="-1" relative="1" as="geometry">
            <mxPoint as="offset" />
          </mxGeometry>
        </mxCell>
        <mxCell id="Fmh4cS3P_eQ8kJ_-uKX7-170" value="&lt;span style=&quot;text-align: left;&quot;&gt;OD ne može da rezerviše uslugu ako&lt;/span&gt;&lt;br style=&quot;border-color: var(--border-color); text-align: left;&quot;&gt;&lt;span style=&quot;text-align: left;&quot;&gt;nema događaj za koji rezerviše tu uslugu&amp;nbsp;&lt;/span&gt;&lt;div&gt;&lt;div style=&quot;text-align: left;&quot;&gt;&lt;br&gt;&lt;/div&gt;&lt;div style=&quot;text-align: left;&quot;&gt;&lt;br&gt;&lt;/div&gt;&lt;div style=&quot;border-color: var(--border-color); text-align: left;&quot;&gt;&amp;lt;==&amp;gt;&lt;/div&gt;&lt;div style=&quot;border-color: var(--border-color); text-align: left;&quot;&gt;&lt;br&gt;&lt;/div&gt;&lt;div style=&quot;border-color: var(--border-color); text-align: left;&quot;&gt;&lt;br&gt;&lt;/div&gt;&lt;div style=&quot;border-color: var(--border-color); text-align: left;&quot;&gt;usluga je predvidjena za neki tip dogadjaja, dogadjaj moze imati samo usluge ako je kompatibilan tip dogadjaja&lt;/div&gt;&lt;/div&gt;" style="ellipse;shape=cloud;whiteSpace=wrap;html=1;" vertex="1" parent="WIyWlLk6GJQsqaUBKTNV-1">
          <mxGeometry x="-1840" y="-1870" width="960" height="520" as="geometry" />
        </mxCell>
        <mxCell id="Fmh4cS3P_eQ8kJ_-uKX7-174" value="Location" style="swimlane;fontStyle=0;align=center;verticalAlign=top;childLayout=stackLayout;horizontal=1;startSize=26;horizontalStack=0;resizeParent=1;resizeLast=0;collapsible=1;marginBottom=0;rounded=0;shadow=0;strokeWidth=1;" vertex="1" parent="WIyWlLk6GJQsqaUBKTNV-1">
          <mxGeometry x="190" y="-1180" width="160" height="150" as="geometry">
            <mxRectangle x="550" y="140" width="160" height="26" as="alternateBounds" />
          </mxGeometry>
        </mxCell>
        <mxCell id="Fmh4cS3P_eQ8kJ_-uKX7-175" value="Latitude" style="text;align=left;verticalAlign=top;spacingLeft=4;spacingRight=4;overflow=hidden;rotatable=0;points=[[0,0.5],[1,0.5]];portConstraint=eastwest;rounded=0;shadow=0;html=0;" vertex="1" parent="Fmh4cS3P_eQ8kJ_-uKX7-174">
          <mxGeometry y="26" width="160" height="26" as="geometry" />
        </mxCell>
        <mxCell id="Fmh4cS3P_eQ8kJ_-uKX7-176" value="Longitude" style="text;align=left;verticalAlign=top;spacingLeft=4;spacingRight=4;overflow=hidden;rotatable=0;points=[[0,0.5],[1,0.5]];portConstraint=eastwest;rounded=0;shadow=0;html=0;" vertex="1" parent="Fmh4cS3P_eQ8kJ_-uKX7-174">
          <mxGeometry y="52" width="160" height="26" as="geometry" />
        </mxCell>
        <mxCell id="Fmh4cS3P_eQ8kJ_-uKX7-178" value="" style="line;html=1;strokeWidth=1;align=left;verticalAlign=middle;spacingTop=-1;spacingLeft=3;spacingRight=3;rotatable=0;labelPosition=right;points=[];portConstraint=eastwest;" vertex="1" parent="Fmh4cS3P_eQ8kJ_-uKX7-174">
          <mxGeometry y="78" width="160" height="8" as="geometry" />
        </mxCell>
        <mxCell id="Fmh4cS3P_eQ8kJ_-uKX7-179" style="edgeStyle=orthogonalEdgeStyle;rounded=0;orthogonalLoop=1;jettySize=auto;html=1;entryX=0.006;entryY=-0.154;entryDx=0;entryDy=0;entryPerimeter=0;" edge="1" parent="WIyWlLk6GJQsqaUBKTNV-1" source="Fmh4cS3P_eQ8kJ_-uKX7-70" target="Fmh4cS3P_eQ8kJ_-uKX7-175">
          <mxGeometry relative="1" as="geometry" />
        </mxCell>
        <mxCell id="Fmh4cS3P_eQ8kJ_-uKX7-180" value="*" style="edgeLabel;html=1;align=center;verticalAlign=middle;resizable=0;points=[];" vertex="1" connectable="0" parent="Fmh4cS3P_eQ8kJ_-uKX7-179">
          <mxGeometry x="-0.9132" relative="1" as="geometry">
            <mxPoint as="offset" />
          </mxGeometry>
        </mxCell>
        <mxCell id="Fmh4cS3P_eQ8kJ_-uKX7-181" value="1" style="edgeLabel;html=1;align=center;verticalAlign=middle;resizable=0;points=[];" vertex="1" connectable="0" parent="Fmh4cS3P_eQ8kJ_-uKX7-179">
          <mxGeometry x="0.8692" relative="1" as="geometry">
            <mxPoint as="offset" />
          </mxGeometry>
        </mxCell>
        <mxCell id="Fmh4cS3P_eQ8kJ_-uKX7-184" value="EventActivity" style="swimlane;fontStyle=0;align=center;verticalAlign=top;childLayout=stackLayout;horizontal=1;startSize=26;horizontalStack=0;resizeParent=1;resizeLast=0;collapsible=1;marginBottom=0;rounded=0;shadow=0;strokeWidth=1;" vertex="1" parent="WIyWlLk6GJQsqaUBKTNV-1">
          <mxGeometry x="-400" y="-1350" width="160" height="180" as="geometry">
            <mxRectangle x="550" y="140" width="160" height="26" as="alternateBounds" />
          </mxGeometry>
        </mxCell>
        <mxCell id="Fmh4cS3P_eQ8kJ_-uKX7-185" value="Name" style="text;align=left;verticalAlign=top;spacingLeft=4;spacingRight=4;overflow=hidden;rotatable=0;points=[[0,0.5],[1,0.5]];portConstraint=eastwest;rounded=0;shadow=0;html=0;" vertex="1" parent="Fmh4cS3P_eQ8kJ_-uKX7-184">
          <mxGeometry y="26" width="160" height="26" as="geometry" />
        </mxCell>
        <mxCell id="Fmh4cS3P_eQ8kJ_-uKX7-186" value="Description" style="text;align=left;verticalAlign=top;spacingLeft=4;spacingRight=4;overflow=hidden;rotatable=0;points=[[0,0.5],[1,0.5]];portConstraint=eastwest;rounded=0;shadow=0;html=0;" vertex="1" parent="Fmh4cS3P_eQ8kJ_-uKX7-184">
          <mxGeometry y="52" width="160" height="26" as="geometry" />
        </mxCell>
        <mxCell id="Fmh4cS3P_eQ8kJ_-uKX7-187" value="StartTime" style="text;align=left;verticalAlign=top;spacingLeft=4;spacingRight=4;overflow=hidden;rotatable=0;points=[[0,0.5],[1,0.5]];portConstraint=eastwest;rounded=0;shadow=0;html=0;" vertex="1" parent="Fmh4cS3P_eQ8kJ_-uKX7-184">
          <mxGeometry y="78" width="160" height="26" as="geometry" />
        </mxCell>
        <mxCell id="Fmh4cS3P_eQ8kJ_-uKX7-188" value="EndTime" style="text;align=left;verticalAlign=top;spacingLeft=4;spacingRight=4;overflow=hidden;rotatable=0;points=[[0,0.5],[1,0.5]];portConstraint=eastwest;rounded=0;shadow=0;html=0;" vertex="1" parent="Fmh4cS3P_eQ8kJ_-uKX7-184">
          <mxGeometry y="104" width="160" height="26" as="geometry" />
        </mxCell>
        <mxCell id="Fmh4cS3P_eQ8kJ_-uKX7-189" value="Location : string" style="text;align=left;verticalAlign=top;spacingLeft=4;spacingRight=4;overflow=hidden;rotatable=0;points=[[0,0.5],[1,0.5]];portConstraint=eastwest;rounded=0;shadow=0;html=0;" vertex="1" parent="Fmh4cS3P_eQ8kJ_-uKX7-184">
          <mxGeometry y="130" width="160" height="26" as="geometry" />
        </mxCell>
        <mxCell id="Fmh4cS3P_eQ8kJ_-uKX7-190" value="" style="line;html=1;strokeWidth=1;align=left;verticalAlign=middle;spacingTop=-1;spacingLeft=3;spacingRight=3;rotatable=0;labelPosition=right;points=[];portConstraint=eastwest;" vertex="1" parent="Fmh4cS3P_eQ8kJ_-uKX7-184">
          <mxGeometry y="156" width="160" height="8" as="geometry" />
        </mxCell>
        <mxCell id="Fmh4cS3P_eQ8kJ_-uKX7-191" value="Ima li potrebe da je agenda klasa ili je dovoljno lista activitya u eventu (&lt;span style=&quot;background-color: initial;&quot;&gt;value objekat)&lt;/span&gt;" style="ellipse;shape=cloud;whiteSpace=wrap;html=1;" vertex="1" parent="WIyWlLk6GJQsqaUBKTNV-1">
          <mxGeometry x="-1590" y="-2790" width="810" height="310" as="geometry" />
        </mxCell>
        <mxCell id="Fmh4cS3P_eQ8kJ_-uKX7-193" style="edgeStyle=orthogonalEdgeStyle;rounded=0;orthogonalLoop=1;jettySize=auto;html=1;entryX=1.022;entryY=0.891;entryDx=0;entryDy=0;entryPerimeter=0;" edge="1" parent="WIyWlLk6GJQsqaUBKTNV-1" source="Fmh4cS3P_eQ8kJ_-uKX7-70" target="Fmh4cS3P_eQ8kJ_-uKX7-186">
          <mxGeometry relative="1" as="geometry">
            <Array as="points">
              <mxPoint x="-80" y="-1275" />
            </Array>
          </mxGeometry>
        </mxCell>
        <mxCell id="Fmh4cS3P_eQ8kJ_-uKX7-194" value="1" style="edgeLabel;html=1;align=center;verticalAlign=middle;resizable=0;points=[];" vertex="1" connectable="0" parent="Fmh4cS3P_eQ8kJ_-uKX7-193">
          <mxGeometry x="-0.9176" relative="1" as="geometry">
            <mxPoint as="offset" />
          </mxGeometry>
        </mxCell>
        <mxCell id="Fmh4cS3P_eQ8kJ_-uKX7-195" value="1..*" style="edgeLabel;html=1;align=center;verticalAlign=middle;resizable=0;points=[];" vertex="1" connectable="0" parent="Fmh4cS3P_eQ8kJ_-uKX7-193">
          <mxGeometry x="0.9055" y="1" relative="1" as="geometry">
            <mxPoint as="offset" />
          </mxGeometry>
        </mxCell>
        <mxCell id="Fmh4cS3P_eQ8kJ_-uKX7-236" style="edgeStyle=orthogonalEdgeStyle;rounded=0;orthogonalLoop=1;jettySize=auto;html=1;" edge="1" parent="WIyWlLk6GJQsqaUBKTNV-1" source="Fmh4cS3P_eQ8kJ_-uKX7-220">
          <mxGeometry relative="1" as="geometry">
            <mxPoint x="20" y="510" as="targetPoint" />
            <Array as="points">
              <mxPoint x="940" y="1000" />
              <mxPoint x="21" y="1000" />
            </Array>
          </mxGeometry>
        </mxCell>
        <mxCell id="Fmh4cS3P_eQ8kJ_-uKX7-237" value="1" style="edgeLabel;html=1;align=center;verticalAlign=middle;resizable=0;points=[];" vertex="1" connectable="0" parent="Fmh4cS3P_eQ8kJ_-uKX7-236">
          <mxGeometry x="0.9705" y="2" relative="1" as="geometry">
            <mxPoint as="offset" />
          </mxGeometry>
        </mxCell>
        <mxCell id="Fmh4cS3P_eQ8kJ_-uKX7-238" value="*" style="edgeLabel;html=1;align=center;verticalAlign=middle;resizable=0;points=[];" vertex="1" connectable="0" parent="Fmh4cS3P_eQ8kJ_-uKX7-236">
          <mxGeometry x="-0.9765" y="-5" relative="1" as="geometry">
            <mxPoint as="offset" />
          </mxGeometry>
        </mxCell>
        <mxCell id="Fmh4cS3P_eQ8kJ_-uKX7-220" value="ServiceBudgetItem" style="swimlane;fontStyle=0;align=center;verticalAlign=top;childLayout=stackLayout;horizontal=1;startSize=26;horizontalStack=0;resizeParent=1;resizeLast=0;collapsible=1;marginBottom=0;rounded=0;shadow=0;strokeWidth=1;" vertex="1" parent="WIyWlLk6GJQsqaUBKTNV-1">
          <mxGeometry x="930" y="-710" width="180" height="150" as="geometry">
            <mxRectangle x="550" y="140" width="160" height="26" as="alternateBounds" />
          </mxGeometry>
        </mxCell>
        <mxCell id="7bUpUxkYCiLjOw0VMk9v-12" value="MaxPrice" style="text;align=left;verticalAlign=top;spacingLeft=4;spacingRight=4;overflow=hidden;rotatable=0;points=[[0,0.5],[1,0.5]];portConstraint=eastwest;rounded=0;shadow=0;html=0;" vertex="1" parent="Fmh4cS3P_eQ8kJ_-uKX7-220">
          <mxGeometry y="26" width="180" height="26" as="geometry" />
        </mxCell>
        <mxCell id="rpGaOk7rnE4ZSk3WpupD-78" value="ServiceVersion" style="text;align=left;verticalAlign=top;spacingLeft=4;spacingRight=4;overflow=hidden;rotatable=0;points=[[0,0.5],[1,0.5]];portConstraint=eastwest;rounded=0;shadow=0;html=0;" vertex="1" parent="Fmh4cS3P_eQ8kJ_-uKX7-220">
          <mxGeometry y="52" width="180" height="26" as="geometry" />
        </mxCell>
        <mxCell id="rpGaOk7rnE4ZSk3WpupD-95" value="startTime" style="text;align=left;verticalAlign=top;spacingLeft=4;spacingRight=4;overflow=hidden;rotatable=0;points=[[0,0.5],[1,0.5]];portConstraint=eastwest;rounded=0;shadow=0;html=0;" vertex="1" parent="Fmh4cS3P_eQ8kJ_-uKX7-220">
          <mxGeometry y="78" width="180" height="26" as="geometry" />
        </mxCell>
        <mxCell id="rpGaOk7rnE4ZSk3WpupD-96" value="endTime" style="text;align=left;verticalAlign=top;spacingLeft=4;spacingRight=4;overflow=hidden;rotatable=0;points=[[0,0.5],[1,0.5]];portConstraint=eastwest;rounded=0;shadow=0;html=0;" vertex="1" parent="Fmh4cS3P_eQ8kJ_-uKX7-220">
          <mxGeometry y="104" width="180" height="26" as="geometry" />
        </mxCell>
        <mxCell id="Fmh4cS3P_eQ8kJ_-uKX7-221" value="" style="line;html=1;strokeWidth=1;align=left;verticalAlign=middle;spacingTop=-1;spacingLeft=3;spacingRight=3;rotatable=0;labelPosition=right;points=[];portConstraint=eastwest;" vertex="1" parent="Fmh4cS3P_eQ8kJ_-uKX7-220">
          <mxGeometry y="130" width="180" height="8" as="geometry" />
        </mxCell>
        <mxCell id="Fmh4cS3P_eQ8kJ_-uKX7-233" style="edgeStyle=orthogonalEdgeStyle;rounded=0;orthogonalLoop=1;jettySize=auto;html=1;" edge="1" parent="WIyWlLk6GJQsqaUBKTNV-1" source="Fmh4cS3P_eQ8kJ_-uKX7-223" target="Fmh4cS3P_eQ8kJ_-uKX7-56">
          <mxGeometry relative="1" as="geometry">
            <Array as="points">
              <mxPoint x="710" y="-260" />
              <mxPoint y="-260" />
            </Array>
          </mxGeometry>
        </mxCell>
        <mxCell id="Fmh4cS3P_eQ8kJ_-uKX7-234" value="1" style="edgeLabel;html=1;align=center;verticalAlign=middle;resizable=0;points=[];" vertex="1" connectable="0" parent="Fmh4cS3P_eQ8kJ_-uKX7-233">
          <mxGeometry x="0.9664" y="2" relative="1" as="geometry">
            <mxPoint as="offset" />
          </mxGeometry>
        </mxCell>
        <mxCell id="Fmh4cS3P_eQ8kJ_-uKX7-235" value="*" style="edgeLabel;html=1;align=center;verticalAlign=middle;resizable=0;points=[];" vertex="1" connectable="0" parent="Fmh4cS3P_eQ8kJ_-uKX7-233">
          <mxGeometry x="-0.9557" y="-2" relative="1" as="geometry">
            <mxPoint as="offset" />
          </mxGeometry>
        </mxCell>
        <mxCell id="Fmh4cS3P_eQ8kJ_-uKX7-242" style="edgeStyle=orthogonalEdgeStyle;rounded=0;orthogonalLoop=1;jettySize=auto;html=1;entryX=0.606;entryY=0.956;entryDx=0;entryDy=0;entryPerimeter=0;exitX=0.75;exitY=1;exitDx=0;exitDy=0;" edge="1" parent="WIyWlLk6GJQsqaUBKTNV-1" source="Fmh4cS3P_eQ8kJ_-uKX7-223">
          <mxGeometry relative="1" as="geometry">
            <Array as="points">
              <mxPoint x="755" y="312" />
              <mxPoint x="354" y="312" />
            </Array>
            <mxPoint x="751" y="-570" as="sourcePoint" />
            <mxPoint x="354.02" y="190.85599999999977" as="targetPoint" />
          </mxGeometry>
        </mxCell>
        <mxCell id="Fmh4cS3P_eQ8kJ_-uKX7-243" value="0..1" style="edgeLabel;html=1;align=center;verticalAlign=middle;resizable=0;points=[];" vertex="1" connectable="0" parent="Fmh4cS3P_eQ8kJ_-uKX7-242">
          <mxGeometry x="0.9321" y="1" relative="1" as="geometry">
            <mxPoint as="offset" />
          </mxGeometry>
        </mxCell>
        <mxCell id="Fmh4cS3P_eQ8kJ_-uKX7-245" value="*" style="edgeLabel;html=1;align=center;verticalAlign=middle;resizable=0;points=[];" vertex="1" connectable="0" parent="Fmh4cS3P_eQ8kJ_-uKX7-242">
          <mxGeometry x="-0.9498" y="1" relative="1" as="geometry">
            <mxPoint as="offset" />
          </mxGeometry>
        </mxCell>
        <mxCell id="Fmh4cS3P_eQ8kJ_-uKX7-246" value="BoughtProduct" style="edgeLabel;html=1;align=center;verticalAlign=middle;resizable=0;points=[];" vertex="1" connectable="0" parent="Fmh4cS3P_eQ8kJ_-uKX7-242">
          <mxGeometry x="0.8475" y="2" relative="1" as="geometry">
            <mxPoint x="35" as="offset" />
          </mxGeometry>
        </mxCell>
        <mxCell id="Fmh4cS3P_eQ8kJ_-uKX7-223" value="ProductBudgetItem" style="swimlane;fontStyle=0;align=center;verticalAlign=top;childLayout=stackLayout;horizontal=1;startSize=26;horizontalStack=0;resizeParent=1;resizeLast=0;collapsible=1;marginBottom=0;rounded=0;shadow=0;strokeWidth=1;" vertex="1" parent="WIyWlLk6GJQsqaUBKTNV-1">
          <mxGeometry x="610" y="-700" width="190" height="170" as="geometry">
            <mxRectangle x="550" y="140" width="160" height="26" as="alternateBounds" />
          </mxGeometry>
        </mxCell>
        <mxCell id="7bUpUxkYCiLjOw0VMk9v-11" value="MaxPrice" style="text;align=left;verticalAlign=top;spacingLeft=4;spacingRight=4;overflow=hidden;rotatable=0;points=[[0,0.5],[1,0.5]];portConstraint=eastwest;rounded=0;shadow=0;html=0;" vertex="1" parent="Fmh4cS3P_eQ8kJ_-uKX7-223">
          <mxGeometry y="26" width="190" height="26" as="geometry" />
        </mxCell>
        <mxCell id="rpGaOk7rnE4ZSk3WpupD-77" value="ProductVersion" style="text;align=left;verticalAlign=top;spacingLeft=4;spacingRight=4;overflow=hidden;rotatable=0;points=[[0,0.5],[1,0.5]];portConstraint=eastwest;rounded=0;shadow=0;html=0;" vertex="1" parent="Fmh4cS3P_eQ8kJ_-uKX7-223">
          <mxGeometry y="52" width="190" height="26" as="geometry" />
        </mxCell>
        <mxCell id="rpGaOk7rnE4ZSk3WpupD-93" value="startTime" style="text;align=left;verticalAlign=top;spacingLeft=4;spacingRight=4;overflow=hidden;rotatable=0;points=[[0,0.5],[1,0.5]];portConstraint=eastwest;rounded=0;shadow=0;html=0;" vertex="1" parent="Fmh4cS3P_eQ8kJ_-uKX7-223">
          <mxGeometry y="78" width="190" height="26" as="geometry" />
        </mxCell>
        <mxCell id="rpGaOk7rnE4ZSk3WpupD-94" value="endTime" style="text;align=left;verticalAlign=top;spacingLeft=4;spacingRight=4;overflow=hidden;rotatable=0;points=[[0,0.5],[1,0.5]];portConstraint=eastwest;rounded=0;shadow=0;html=0;" vertex="1" parent="Fmh4cS3P_eQ8kJ_-uKX7-223">
          <mxGeometry y="104" width="190" height="26" as="geometry" />
        </mxCell>
        <mxCell id="Fmh4cS3P_eQ8kJ_-uKX7-224" value="" style="line;html=1;strokeWidth=1;align=left;verticalAlign=middle;spacingTop=-1;spacingLeft=3;spacingRight=3;rotatable=0;labelPosition=right;points=[];portConstraint=eastwest;" vertex="1" parent="Fmh4cS3P_eQ8kJ_-uKX7-223">
          <mxGeometry y="130" width="190" height="8" as="geometry" />
        </mxCell>
        <mxCell id="Fmh4cS3P_eQ8kJ_-uKX7-231" value="Sust inski service i product mogu biti jedno, ali ako se razdvoje izbegavamo god table u bazi" style="ellipse;shape=cloud;whiteSpace=wrap;html=1;" vertex="1" parent="WIyWlLk6GJQsqaUBKTNV-1">
          <mxGeometry x="-1680" y="-3040" width="1040" height="280" as="geometry" />
        </mxCell>
        <mxCell id="Fmh4cS3P_eQ8kJ_-uKX7-232" value="Da li se event nekako ocenjuje i komentarise?" style="ellipse;shape=cloud;whiteSpace=wrap;html=1;" vertex="1" parent="WIyWlLk6GJQsqaUBKTNV-1">
          <mxGeometry x="-1390" y="-3290" width="380" height="270" as="geometry" />
        </mxCell>
        <mxCell id="7bUpUxkYCiLjOw0VMk9v-1" style="edgeStyle=orthogonalEdgeStyle;rounded=0;orthogonalLoop=1;jettySize=auto;html=1;entryX=-0.025;entryY=1.115;entryDx=0;entryDy=0;entryPerimeter=0;" edge="1" parent="WIyWlLk6GJQsqaUBKTNV-1" source="Fmh4cS3P_eQ8kJ_-uKX7-9" target="Fmh4cS3P_eQ8kJ_-uKX7-172">
          <mxGeometry relative="1" as="geometry">
            <Array as="points">
              <mxPoint x="-1230" y="190" />
              <mxPoint x="-1230" y="-727" />
            </Array>
          </mxGeometry>
        </mxCell>
        <mxCell id="7bUpUxkYCiLjOw0VMk9v-2" value="*" style="edgeLabel;html=1;align=center;verticalAlign=middle;resizable=0;points=[];" connectable="0" vertex="1" parent="7bUpUxkYCiLjOw0VMk9v-1">
          <mxGeometry x="-0.9775" y="1" relative="1" as="geometry">
            <mxPoint as="offset" />
          </mxGeometry>
        </mxCell>
        <mxCell id="7bUpUxkYCiLjOw0VMk9v-3" value="*" style="edgeLabel;html=1;align=center;verticalAlign=middle;resizable=0;points=[];" connectable="0" vertex="1" parent="7bUpUxkYCiLjOw0VMk9v-1">
          <mxGeometry x="0.9812" y="3" relative="1" as="geometry">
            <mxPoint as="offset" />
          </mxGeometry>
        </mxCell>
        <mxCell id="7bUpUxkYCiLjOw0VMk9v-4" value="Accepted&lt;br&gt;Events" style="edgeLabel;html=1;align=center;verticalAlign=middle;resizable=0;points=[];" connectable="0" vertex="1" parent="7bUpUxkYCiLjOw0VMk9v-1">
          <mxGeometry x="0.9307" y="-2" relative="1" as="geometry">
            <mxPoint as="offset" />
          </mxGeometry>
        </mxCell>
        <mxCell id="7bUpUxkYCiLjOw0VMk9v-5" style="edgeStyle=orthogonalEdgeStyle;rounded=0;orthogonalLoop=1;jettySize=auto;html=1;exitX=0.118;exitY=0;exitDx=0;exitDy=0;exitPerimeter=0;" edge="1" parent="WIyWlLk6GJQsqaUBKTNV-1" source="Fmh4cS3P_eQ8kJ_-uKX7-124">
          <mxGeometry relative="1" as="geometry">
            <mxPoint x="-1080" y="-20" as="sourcePoint" />
            <mxPoint x="-100" y="-690" as="targetPoint" />
            <Array as="points">
              <mxPoint x="-1080" y="-690" />
              <mxPoint x="-100" y="-690" />
            </Array>
          </mxGeometry>
        </mxCell>
        <mxCell id="7bUpUxkYCiLjOw0VMk9v-6" value="*" style="edgeLabel;html=1;align=center;verticalAlign=middle;resizable=0;points=[];" connectable="0" vertex="1" parent="7bUpUxkYCiLjOw0VMk9v-5">
          <mxGeometry x="-0.9788" y="-3" relative="1" as="geometry">
            <mxPoint as="offset" />
          </mxGeometry>
        </mxCell>
        <mxCell id="7bUpUxkYCiLjOw0VMk9v-7" value="0..1" style="edgeLabel;html=1;align=center;verticalAlign=middle;resizable=0;points=[];" connectable="0" vertex="1" parent="7bUpUxkYCiLjOw0VMk9v-5">
          <mxGeometry x="0.9493" y="-1" relative="1" as="geometry">
            <mxPoint as="offset" />
          </mxGeometry>
        </mxCell>
        <mxCell id="7bUpUxkYCiLjOw0VMk9v-9" style="edgeStyle=orthogonalEdgeStyle;rounded=0;orthogonalLoop=1;jettySize=auto;html=1;entryX=0.383;entryY=0.011;entryDx=0;entryDy=0;entryPerimeter=0;" edge="1" parent="WIyWlLk6GJQsqaUBKTNV-1" source="Fmh4cS3P_eQ8kJ_-uKX7-172" target="Fmh4cS3P_eQ8kJ_-uKX7-223">
          <mxGeometry relative="1" as="geometry" />
        </mxCell>
        <mxCell id="7bUpUxkYCiLjOw0VMk9v-14" value="*" style="edgeLabel;html=1;align=center;verticalAlign=middle;resizable=0;points=[];" connectable="0" vertex="1" parent="7bUpUxkYCiLjOw0VMk9v-9">
          <mxGeometry x="-0.7013" y="-2" relative="1" as="geometry">
            <mxPoint as="offset" />
          </mxGeometry>
        </mxCell>
        <mxCell id="7bUpUxkYCiLjOw0VMk9v-15" value="*" style="edgeLabel;html=1;align=center;verticalAlign=middle;resizable=0;points=[];" connectable="0" vertex="1" parent="7bUpUxkYCiLjOw0VMk9v-9">
          <mxGeometry x="0.9223" y="-2" relative="1" as="geometry">
            <mxPoint as="offset" />
          </mxGeometry>
        </mxCell>
        <mxCell id="7bUpUxkYCiLjOw0VMk9v-10" style="edgeStyle=orthogonalEdgeStyle;rounded=0;orthogonalLoop=1;jettySize=auto;html=1;entryX=0.456;entryY=0.044;entryDx=0;entryDy=0;entryPerimeter=0;" edge="1" parent="WIyWlLk6GJQsqaUBKTNV-1" source="Fmh4cS3P_eQ8kJ_-uKX7-171" target="Fmh4cS3P_eQ8kJ_-uKX7-220">
          <mxGeometry relative="1" as="geometry" />
        </mxCell>
        <mxCell id="7bUpUxkYCiLjOw0VMk9v-13" value="*" style="edgeLabel;html=1;align=center;verticalAlign=middle;resizable=0;points=[];" connectable="0" vertex="1" parent="7bUpUxkYCiLjOw0VMk9v-10">
          <mxGeometry x="-0.8091" y="2" relative="1" as="geometry">
            <mxPoint as="offset" />
          </mxGeometry>
        </mxCell>
        <mxCell id="7bUpUxkYCiLjOw0VMk9v-16" value="*" style="edgeLabel;html=1;align=center;verticalAlign=middle;resizable=0;points=[];" connectable="0" vertex="1" parent="7bUpUxkYCiLjOw0VMk9v-10">
          <mxGeometry x="0.9311" y="-1" relative="1" as="geometry">
            <mxPoint as="offset" />
          </mxGeometry>
        </mxCell>
        <mxCell id="rpGaOk7rnE4ZSk3WpupD-33" style="edgeStyle=orthogonalEdgeStyle;rounded=0;orthogonalLoop=1;jettySize=auto;html=1;entryX=0.998;entryY=-0.158;entryDx=0;entryDy=0;entryPerimeter=0;" edge="1" parent="WIyWlLk6GJQsqaUBKTNV-1" source="Fmh4cS3P_eQ8kJ_-uKX7-220" target="rpGaOk7rnE4ZSk3WpupD-25">
          <mxGeometry relative="1" as="geometry" />
        </mxCell>
        <mxCell id="rpGaOk7rnE4ZSk3WpupD-34" value="0..1" style="edgeLabel;html=1;align=center;verticalAlign=middle;resizable=0;points=[];" connectable="0" vertex="1" parent="rpGaOk7rnE4ZSk3WpupD-33">
          <mxGeometry x="0.9562" y="1" relative="1" as="geometry">
            <mxPoint as="offset" />
          </mxGeometry>
        </mxCell>
        <mxCell id="rpGaOk7rnE4ZSk3WpupD-35" value="*" style="edgeLabel;html=1;align=center;verticalAlign=middle;resizable=0;points=[];" connectable="0" vertex="1" parent="rpGaOk7rnE4ZSk3WpupD-33">
          <mxGeometry x="-0.9718" relative="1" as="geometry">
            <mxPoint as="offset" />
          </mxGeometry>
        </mxCell>
        <mxCell id="rpGaOk7rnE4ZSk3WpupD-36" value="BoughtService" style="edgeLabel;html=1;align=center;verticalAlign=middle;resizable=0;points=[];" connectable="0" vertex="1" parent="rpGaOk7rnE4ZSk3WpupD-33">
          <mxGeometry x="0.9069" y="-4" relative="1" as="geometry">
            <mxPoint x="28" as="offset" />
          </mxGeometry>
        </mxCell>
        <mxCell id="rpGaOk7rnE4ZSk3WpupD-55" style="edgeStyle=orthogonalEdgeStyle;rounded=0;orthogonalLoop=1;jettySize=auto;html=1;entryX=1;entryY=0.75;entryDx=0;entryDy=0;exitX=0.706;exitY=0;exitDx=0;exitDy=0;exitPerimeter=0;" edge="1" parent="WIyWlLk6GJQsqaUBKTNV-1" source="Fmh4cS3P_eQ8kJ_-uKX7-64" target="Fmh4cS3P_eQ8kJ_-uKX7-92">
          <mxGeometry relative="1" as="geometry">
            <mxPoint x="370" y="-100" as="sourcePoint" />
            <Array as="points">
              <mxPoint x="390" y="-90" />
              <mxPoint x="390" y="-547" />
            </Array>
          </mxGeometry>
        </mxCell>
        <mxCell id="rpGaOk7rnE4ZSk3WpupD-57" value="*" style="edgeLabel;html=1;align=center;verticalAlign=middle;resizable=0;points=[];" connectable="0" vertex="1" parent="rpGaOk7rnE4ZSk3WpupD-55">
          <mxGeometry x="0.9028" y="1" relative="1" as="geometry">
            <mxPoint as="offset" />
          </mxGeometry>
        </mxCell>
        <mxCell id="rpGaOk7rnE4ZSk3WpupD-58" value="*" style="edgeLabel;html=1;align=center;verticalAlign=middle;resizable=0;points=[];" connectable="0" vertex="1" parent="rpGaOk7rnE4ZSk3WpupD-55">
          <mxGeometry x="-0.8487" y="3" relative="1" as="geometry">
            <mxPoint as="offset" />
          </mxGeometry>
        </mxCell>
        <mxCell id="rpGaOk7rnE4ZSk3WpupD-56" value="Available&lt;br&gt;Event&lt;br&gt;Types" style="edgeLabel;html=1;align=center;verticalAlign=middle;resizable=0;points=[];" connectable="0" vertex="1" parent="WIyWlLk6GJQsqaUBKTNV-1">
          <mxGeometry x="389.99904040290835" y="-490.001606164951" as="geometry" />
        </mxCell>
        <mxCell id="rpGaOk7rnE4ZSk3WpupD-111" value="Spojiti grade i review u jedno" style="ellipse;shape=cloud;whiteSpace=wrap;html=1;" vertex="1" parent="WIyWlLk6GJQsqaUBKTNV-1">
          <mxGeometry x="-1540" y="-2330" width="380" height="270" as="geometry" />
        </mxCell>
        <mxCell id="rpGaOk7rnE4ZSk3WpupD-112" value="PendingStatus &lt;Enum&gt;" style="swimlane;fontStyle=0;align=center;verticalAlign=top;childLayout=stackLayout;horizontal=1;startSize=26;horizontalStack=0;resizeParent=1;resizeLast=0;collapsible=1;marginBottom=0;rounded=0;shadow=0;strokeWidth=1;" vertex="1" parent="WIyWlLk6GJQsqaUBKTNV-1">
          <mxGeometry x="-2450" y="-630" width="160" height="150" as="geometry">
            <mxRectangle x="550" y="140" width="160" height="26" as="alternateBounds" />
          </mxGeometry>
        </mxCell>
        <mxCell id="rpGaOk7rnE4ZSk3WpupD-113" value="pending" style="text;align=left;verticalAlign=top;spacingLeft=4;spacingRight=4;overflow=hidden;rotatable=0;points=[[0,0.5],[1,0.5]];portConstraint=eastwest;rounded=0;shadow=0;html=0;" vertex="1" parent="rpGaOk7rnE4ZSk3WpupD-112">
          <mxGeometry y="26" width="160" height="26" as="geometry" />
        </mxCell>
        <mxCell id="rpGaOk7rnE4ZSk3WpupD-115" value="accepted" style="text;align=left;verticalAlign=top;spacingLeft=4;spacingRight=4;overflow=hidden;rotatable=0;points=[[0,0.5],[1,0.5]];portConstraint=eastwest;rounded=0;shadow=0;html=0;" vertex="1" parent="rpGaOk7rnE4ZSk3WpupD-112">
          <mxGeometry y="52" width="160" height="26" as="geometry" />
        </mxCell>
        <mxCell id="rpGaOk7rnE4ZSk3WpupD-116" value="rejected" style="text;align=left;verticalAlign=top;spacingLeft=4;spacingRight=4;overflow=hidden;rotatable=0;points=[[0,0.5],[1,0.5]];portConstraint=eastwest;rounded=0;shadow=0;html=0;" vertex="1" parent="rpGaOk7rnE4ZSk3WpupD-112">
          <mxGeometry y="78" width="160" height="26" as="geometry" />
        </mxCell>
        <mxCell id="rpGaOk7rnE4ZSk3WpupD-114" value="" style="line;html=1;strokeWidth=1;align=left;verticalAlign=middle;spacingTop=-1;spacingLeft=3;spacingRight=3;rotatable=0;labelPosition=right;points=[];portConstraint=eastwest;" vertex="1" parent="rpGaOk7rnE4ZSk3WpupD-112">
          <mxGeometry y="104" width="160" height="8" as="geometry" />
        </mxCell>
        <mxCell id="rpGaOk7rnE4ZSk3WpupD-124" value="EventOrganizer (OD)" style="swimlane;fontStyle=0;align=center;verticalAlign=top;childLayout=stackLayout;horizontal=1;startSize=26;horizontalStack=0;resizeParent=1;resizeLast=0;collapsible=1;marginBottom=0;rounded=0;shadow=0;strokeWidth=1;" vertex="1" parent="WIyWlLk6GJQsqaUBKTNV-1">
          <mxGeometry x="-1880" y="470" width="160" height="150" as="geometry">
            <mxRectangle x="550" y="140" width="160" height="26" as="alternateBounds" />
          </mxGeometry>
        </mxCell>
        <mxCell id="rpGaOk7rnE4ZSk3WpupD-126" value="" style="line;html=1;strokeWidth=1;align=left;verticalAlign=middle;spacingTop=-1;spacingLeft=3;spacingRight=3;rotatable=0;labelPosition=right;points=[];portConstraint=eastwest;" vertex="1" parent="rpGaOk7rnE4ZSk3WpupD-124">
          <mxGeometry y="26" width="160" height="8" as="geometry" />
        </mxCell>
        <mxCell id="rpGaOk7rnE4ZSk3WpupD-127" value="Product" style="swimlane;fontStyle=0;align=center;verticalAlign=top;childLayout=stackLayout;horizontal=1;startSize=26;horizontalStack=0;resizeParent=1;resizeLast=0;collapsible=1;marginBottom=0;rounded=0;shadow=0;strokeWidth=1;" vertex="1" parent="WIyWlLk6GJQsqaUBKTNV-1">
          <mxGeometry x="-2090" y="1170" width="160" height="150" as="geometry">
            <mxRectangle x="550" y="140" width="160" height="26" as="alternateBounds" />
          </mxGeometry>
        </mxCell>
        <mxCell id="rpGaOk7rnE4ZSk3WpupD-128" value="" style="line;html=1;strokeWidth=1;align=left;verticalAlign=middle;spacingTop=-1;spacingLeft=3;spacingRight=3;rotatable=0;labelPosition=right;points=[];portConstraint=eastwest;" vertex="1" parent="rpGaOk7rnE4ZSk3WpupD-127">
          <mxGeometry y="26" width="160" height="8" as="geometry" />
        </mxCell>
        <mxCell id="rpGaOk7rnE4ZSk3WpupD-129" value="Service" style="swimlane;fontStyle=0;align=center;verticalAlign=top;childLayout=stackLayout;horizontal=1;startSize=26;horizontalStack=0;resizeParent=1;resizeLast=0;collapsible=1;marginBottom=0;rounded=0;shadow=0;strokeWidth=1;" vertex="1" parent="WIyWlLk6GJQsqaUBKTNV-1">
          <mxGeometry x="-1700" y="1170" width="160" height="150" as="geometry">
            <mxRectangle x="550" y="140" width="160" height="26" as="alternateBounds" />
          </mxGeometry>
        </mxCell>
        <mxCell id="rpGaOk7rnE4ZSk3WpupD-130" value="" style="line;html=1;strokeWidth=1;align=left;verticalAlign=middle;spacingTop=-1;spacingLeft=3;spacingRight=3;rotatable=0;labelPosition=right;points=[];portConstraint=eastwest;" vertex="1" parent="rpGaOk7rnE4ZSk3WpupD-129">
          <mxGeometry y="26" width="160" height="8" as="geometry" />
        </mxCell>
        <mxCell id="rpGaOk7rnE4ZSk3WpupD-131" style="edgeStyle=orthogonalEdgeStyle;rounded=0;orthogonalLoop=1;jettySize=auto;html=1;entryX=0.37;entryY=0.006;entryDx=0;entryDy=0;entryPerimeter=0;" edge="1" parent="WIyWlLk6GJQsqaUBKTNV-1" source="Fmh4cS3P_eQ8kJ_-uKX7-136" target="rpGaOk7rnE4ZSk3WpupD-129">
          <mxGeometry relative="1" as="geometry" />
        </mxCell>
        <mxCell id="rpGaOk7rnE4ZSk3WpupD-137" value="0..1" style="edgeLabel;html=1;align=center;verticalAlign=middle;resizable=0;points=[];" connectable="0" vertex="1" parent="rpGaOk7rnE4ZSk3WpupD-131">
          <mxGeometry x="0.6925" y="1" relative="1" as="geometry">
            <mxPoint as="offset" />
          </mxGeometry>
        </mxCell>
        <mxCell id="rpGaOk7rnE4ZSk3WpupD-138" value="*" style="edgeLabel;html=1;align=center;verticalAlign=middle;resizable=0;points=[];" connectable="0" vertex="1" parent="rpGaOk7rnE4ZSk3WpupD-131">
          <mxGeometry x="-0.6969" y="-1" relative="1" as="geometry">
            <mxPoint as="offset" />
          </mxGeometry>
        </mxCell>
        <mxCell id="rpGaOk7rnE4ZSk3WpupD-190" style="edgeStyle=orthogonalEdgeStyle;rounded=0;orthogonalLoop=1;jettySize=auto;html=1;entryX=0.75;entryY=0;entryDx=0;entryDy=0;" edge="1" parent="WIyWlLk6GJQsqaUBKTNV-1" source="rpGaOk7rnE4ZSk3WpupD-160" target="rpGaOk7rnE4ZSk3WpupD-173">
          <mxGeometry relative="1" as="geometry">
            <Array as="points">
              <mxPoint x="-1820" y="-230" />
              <mxPoint x="-1820" y="-230" />
            </Array>
          </mxGeometry>
        </mxCell>
        <mxCell id="rpGaOk7rnE4ZSk3WpupD-192" value="to" style="edgeLabel;html=1;align=center;verticalAlign=middle;resizable=0;points=[];" connectable="0" vertex="1" parent="rpGaOk7rnE4ZSk3WpupD-190">
          <mxGeometry x="0.61" y="-1" relative="1" as="geometry">
            <mxPoint y="-7" as="offset" />
          </mxGeometry>
        </mxCell>
        <mxCell id="rpGaOk7rnE4ZSk3WpupD-194" value="1" style="edgeLabel;html=1;align=center;verticalAlign=middle;resizable=0;points=[];" connectable="0" vertex="1" parent="rpGaOk7rnE4ZSk3WpupD-190">
          <mxGeometry x="0.8136" y="1" relative="1" as="geometry">
            <mxPoint as="offset" />
          </mxGeometry>
        </mxCell>
        <mxCell id="rpGaOk7rnE4ZSk3WpupD-196" value="*" style="edgeLabel;html=1;align=center;verticalAlign=middle;resizable=0;points=[];" connectable="0" vertex="1" parent="rpGaOk7rnE4ZSk3WpupD-190">
          <mxGeometry x="-0.7294" y="-1" relative="1" as="geometry">
            <mxPoint as="offset" />
          </mxGeometry>
        </mxCell>
        <mxCell id="rpGaOk7rnE4ZSk3WpupD-160" value="BlockedUsers" style="swimlane;fontStyle=0;align=center;verticalAlign=top;childLayout=stackLayout;horizontal=1;startSize=26;horizontalStack=0;resizeParent=1;resizeLast=0;collapsible=1;marginBottom=0;rounded=0;shadow=0;strokeWidth=1;" vertex="1" parent="WIyWlLk6GJQsqaUBKTNV-1">
          <mxGeometry x="-1930" y="-420" width="160" height="150" as="geometry">
            <mxRectangle x="550" y="140" width="160" height="26" as="alternateBounds" />
          </mxGeometry>
        </mxCell>
        <mxCell id="rpGaOk7rnE4ZSk3WpupD-161" value="From" style="text;align=left;verticalAlign=top;spacingLeft=4;spacingRight=4;overflow=hidden;rotatable=0;points=[[0,0.5],[1,0.5]];portConstraint=eastwest;" vertex="1" parent="rpGaOk7rnE4ZSk3WpupD-160">
          <mxGeometry y="26" width="160" height="26" as="geometry" />
        </mxCell>
        <mxCell id="rpGaOk7rnE4ZSk3WpupD-162" value="To" style="text;align=left;verticalAlign=top;spacingLeft=4;spacingRight=4;overflow=hidden;rotatable=0;points=[[0,0.5],[1,0.5]];portConstraint=eastwest;rounded=0;shadow=0;html=0;" vertex="1" parent="rpGaOk7rnE4ZSk3WpupD-160">
          <mxGeometry y="52" width="160" height="26" as="geometry" />
        </mxCell>
        <mxCell id="rpGaOk7rnE4ZSk3WpupD-163" value="" style="line;html=1;strokeWidth=1;align=left;verticalAlign=middle;spacingTop=-1;spacingLeft=3;spacingRight=3;rotatable=0;labelPosition=right;points=[];portConstraint=eastwest;" vertex="1" parent="rpGaOk7rnE4ZSk3WpupD-160">
          <mxGeometry y="78" width="160" height="8" as="geometry" />
        </mxCell>
        <mxCell id="rpGaOk7rnE4ZSk3WpupD-179" style="edgeStyle=orthogonalEdgeStyle;rounded=0;orthogonalLoop=1;jettySize=auto;html=1;" edge="1" parent="WIyWlLk6GJQsqaUBKTNV-1" source="rpGaOk7rnE4ZSk3WpupD-164">
          <mxGeometry relative="1" as="geometry">
            <mxPoint x="-1780" y="-25" as="targetPoint" />
          </mxGeometry>
        </mxCell>
        <mxCell id="rpGaOk7rnE4ZSk3WpupD-182" value="from" style="edgeLabel;html=1;align=center;verticalAlign=middle;resizable=0;points=[];" connectable="0" vertex="1" parent="rpGaOk7rnE4ZSk3WpupD-179">
          <mxGeometry x="0.7494" relative="1" as="geometry">
            <mxPoint x="39" as="offset" />
          </mxGeometry>
        </mxCell>
        <mxCell id="rpGaOk7rnE4ZSk3WpupD-186" value="1" style="edgeLabel;html=1;align=center;verticalAlign=middle;resizable=0;points=[];" connectable="0" vertex="1" parent="rpGaOk7rnE4ZSk3WpupD-179">
          <mxGeometry x="0.8384" y="2" relative="1" as="geometry">
            <mxPoint as="offset" />
          </mxGeometry>
        </mxCell>
        <mxCell id="rpGaOk7rnE4ZSk3WpupD-187" value="*" style="edgeLabel;html=1;align=center;verticalAlign=middle;resizable=0;points=[];" connectable="0" vertex="1" parent="rpGaOk7rnE4ZSk3WpupD-179">
          <mxGeometry x="-0.879" y="2" relative="1" as="geometry">
            <mxPoint as="offset" />
          </mxGeometry>
        </mxCell>
        <mxCell id="rpGaOk7rnE4ZSk3WpupD-164" value="ChatMessage" style="swimlane;fontStyle=0;align=center;verticalAlign=top;childLayout=stackLayout;horizontal=1;startSize=26;horizontalStack=0;resizeParent=1;resizeLast=0;collapsible=1;marginBottom=0;rounded=0;shadow=0;strokeWidth=1;" vertex="1" parent="WIyWlLk6GJQsqaUBKTNV-1">
          <mxGeometry x="-1530" y="-100" width="160" height="150" as="geometry">
            <mxRectangle x="550" y="140" width="160" height="26" as="alternateBounds" />
          </mxGeometry>
        </mxCell>
        <mxCell id="rpGaOk7rnE4ZSk3WpupD-165" value="Date" style="text;align=left;verticalAlign=top;spacingLeft=4;spacingRight=4;overflow=hidden;rotatable=0;points=[[0,0.5],[1,0.5]];portConstraint=eastwest;" vertex="1" parent="rpGaOk7rnE4ZSk3WpupD-164">
          <mxGeometry y="26" width="160" height="26" as="geometry" />
        </mxCell>
        <mxCell id="rpGaOk7rnE4ZSk3WpupD-166" value="Message" style="text;align=left;verticalAlign=top;spacingLeft=4;spacingRight=4;overflow=hidden;rotatable=0;points=[[0,0.5],[1,0.5]];portConstraint=eastwest;rounded=0;shadow=0;html=0;" vertex="1" parent="rpGaOk7rnE4ZSk3WpupD-164">
          <mxGeometry y="52" width="160" height="26" as="geometry" />
        </mxCell>
        <mxCell id="rpGaOk7rnE4ZSk3WpupD-167" value="isSeen" style="text;align=left;verticalAlign=top;spacingLeft=4;spacingRight=4;overflow=hidden;rotatable=0;points=[[0,0.5],[1,0.5]];portConstraint=eastwest;rounded=0;shadow=0;html=0;" vertex="1" parent="rpGaOk7rnE4ZSk3WpupD-164">
          <mxGeometry y="78" width="160" height="26" as="geometry" />
        </mxCell>
        <mxCell id="rpGaOk7rnE4ZSk3WpupD-168" value="" style="line;html=1;strokeWidth=1;align=left;verticalAlign=middle;spacingTop=-1;spacingLeft=3;spacingRight=3;rotatable=0;labelPosition=right;points=[];portConstraint=eastwest;" vertex="1" parent="rpGaOk7rnE4ZSk3WpupD-164">
          <mxGeometry y="104" width="160" height="8" as="geometry" />
        </mxCell>
        <mxCell id="rpGaOk7rnE4ZSk3WpupD-197" style="edgeStyle=orthogonalEdgeStyle;rounded=0;orthogonalLoop=1;jettySize=auto;html=1;entryX=0;entryY=0.5;entryDx=0;entryDy=0;" edge="1" parent="WIyWlLk6GJQsqaUBKTNV-1" source="rpGaOk7rnE4ZSk3WpupD-169" target="rpGaOk7rnE4ZSk3WpupD-173">
          <mxGeometry relative="1" as="geometry" />
        </mxCell>
        <mxCell id="rpGaOk7rnE4ZSk3WpupD-198" value="*" style="edgeLabel;html=1;align=center;verticalAlign=middle;resizable=0;points=[];" connectable="0" vertex="1" parent="rpGaOk7rnE4ZSk3WpupD-197">
          <mxGeometry x="-0.8331" relative="1" as="geometry">
            <mxPoint as="offset" />
          </mxGeometry>
        </mxCell>
        <mxCell id="rpGaOk7rnE4ZSk3WpupD-199" value="1" style="edgeLabel;html=1;align=center;verticalAlign=middle;resizable=0;points=[];" connectable="0" vertex="1" parent="rpGaOk7rnE4ZSk3WpupD-197">
          <mxGeometry x="0.7704" y="1" relative="1" as="geometry">
            <mxPoint as="offset" />
          </mxGeometry>
        </mxCell>
        <mxCell id="rpGaOk7rnE4ZSk3WpupD-169" value="RegisrationAttempt" style="swimlane;fontStyle=0;align=center;verticalAlign=top;childLayout=stackLayout;horizontal=1;startSize=26;horizontalStack=0;resizeParent=1;resizeLast=0;collapsible=1;marginBottom=0;rounded=0;shadow=0;strokeWidth=1;" vertex="1" parent="WIyWlLk6GJQsqaUBKTNV-1">
          <mxGeometry x="-2360" y="-90" width="160" height="150" as="geometry">
            <mxRectangle x="550" y="140" width="160" height="26" as="alternateBounds" />
          </mxGeometry>
        </mxCell>
        <mxCell id="rpGaOk7rnE4ZSk3WpupD-170" value="Date" style="text;align=left;verticalAlign=top;spacingLeft=4;spacingRight=4;overflow=hidden;rotatable=0;points=[[0,0.5],[1,0.5]];portConstraint=eastwest;" vertex="1" parent="rpGaOk7rnE4ZSk3WpupD-169">
          <mxGeometry y="26" width="160" height="26" as="geometry" />
        </mxCell>
        <mxCell id="rpGaOk7rnE4ZSk3WpupD-171" value="Id" style="text;align=left;verticalAlign=top;spacingLeft=4;spacingRight=4;overflow=hidden;rotatable=0;points=[[0,0.5],[1,0.5]];portConstraint=eastwest;rounded=0;shadow=0;html=0;" vertex="1" parent="rpGaOk7rnE4ZSk3WpupD-169">
          <mxGeometry y="52" width="160" height="26" as="geometry" />
        </mxCell>
        <mxCell id="rpGaOk7rnE4ZSk3WpupD-172" value="" style="line;html=1;strokeWidth=1;align=left;verticalAlign=middle;spacingTop=-1;spacingLeft=3;spacingRight=3;rotatable=0;labelPosition=right;points=[];portConstraint=eastwest;" vertex="1" parent="rpGaOk7rnE4ZSk3WpupD-169">
          <mxGeometry y="78" width="160" height="8" as="geometry" />
        </mxCell>
        <mxCell id="rpGaOk7rnE4ZSk3WpupD-173" value="Profile" style="swimlane;fontStyle=0;align=center;verticalAlign=top;childLayout=stackLayout;horizontal=1;startSize=26;horizontalStack=0;resizeParent=1;resizeLast=0;collapsible=1;marginBottom=0;rounded=0;shadow=0;strokeWidth=1;" vertex="1" parent="WIyWlLk6GJQsqaUBKTNV-1">
          <mxGeometry x="-1940" y="-100" width="160" height="170" as="geometry">
            <mxRectangle x="550" y="140" width="160" height="26" as="alternateBounds" />
          </mxGeometry>
        </mxCell>
        <mxCell id="rpGaOk7rnE4ZSk3WpupD-178" value="" style="line;html=1;strokeWidth=1;align=left;verticalAlign=middle;spacingTop=-1;spacingLeft=3;spacingRight=3;rotatable=0;labelPosition=right;points=[];portConstraint=eastwest;" vertex="1" parent="rpGaOk7rnE4ZSk3WpupD-173">
          <mxGeometry y="26" width="160" height="8" as="geometry" />
        </mxCell>
        <mxCell id="rpGaOk7rnE4ZSk3WpupD-181" style="edgeStyle=orthogonalEdgeStyle;rounded=0;orthogonalLoop=1;jettySize=auto;html=1;entryX=1;entryY=0.75;entryDx=0;entryDy=0;" edge="1" parent="WIyWlLk6GJQsqaUBKTNV-1" source="rpGaOk7rnE4ZSk3WpupD-166" target="rpGaOk7rnE4ZSk3WpupD-173">
          <mxGeometry relative="1" as="geometry">
            <Array as="points">
              <mxPoint x="-1530" y="30" />
              <mxPoint x="-1560" y="30" />
              <mxPoint x="-1560" y="28" />
            </Array>
          </mxGeometry>
        </mxCell>
        <mxCell id="rpGaOk7rnE4ZSk3WpupD-184" value="to" style="edgeLabel;html=1;align=center;verticalAlign=middle;resizable=0;points=[];" connectable="0" vertex="1" parent="rpGaOk7rnE4ZSk3WpupD-181">
          <mxGeometry x="0.713" y="2" relative="1" as="geometry">
            <mxPoint x="26" y="-2" as="offset" />
          </mxGeometry>
        </mxCell>
        <mxCell id="rpGaOk7rnE4ZSk3WpupD-185" value="1" style="edgeLabel;html=1;align=center;verticalAlign=middle;resizable=0;points=[];" connectable="0" vertex="1" parent="rpGaOk7rnE4ZSk3WpupD-181">
          <mxGeometry x="0.8444" relative="1" as="geometry">
            <mxPoint as="offset" />
          </mxGeometry>
        </mxCell>
        <mxCell id="rpGaOk7rnE4ZSk3WpupD-188" value="*" style="edgeLabel;html=1;align=center;verticalAlign=middle;resizable=0;points=[];" connectable="0" vertex="1" parent="rpGaOk7rnE4ZSk3WpupD-181">
          <mxGeometry x="-0.5337" y="2" relative="1" as="geometry">
            <mxPoint as="offset" />
          </mxGeometry>
        </mxCell>
        <mxCell id="rpGaOk7rnE4ZSk3WpupD-189" style="edgeStyle=orthogonalEdgeStyle;rounded=0;orthogonalLoop=1;jettySize=auto;html=1;entryX=0.57;entryY=-0.019;entryDx=0;entryDy=0;entryPerimeter=0;" edge="1" parent="WIyWlLk6GJQsqaUBKTNV-1">
          <mxGeometry relative="1" as="geometry">
            <mxPoint x="-1910" y="-270" as="sourcePoint" />
            <mxPoint x="-1908.8000000000002" y="-103.23000000000047" as="targetPoint" />
            <Array as="points">
              <mxPoint x="-1909" y="-270" />
            </Array>
          </mxGeometry>
        </mxCell>
        <mxCell id="rpGaOk7rnE4ZSk3WpupD-191" value="from" style="edgeLabel;html=1;align=center;verticalAlign=middle;resizable=0;points=[];" connectable="0" vertex="1" parent="rpGaOk7rnE4ZSk3WpupD-189">
          <mxGeometry x="0.6483" y="-2" relative="1" as="geometry">
            <mxPoint y="-7" as="offset" />
          </mxGeometry>
        </mxCell>
        <mxCell id="rpGaOk7rnE4ZSk3WpupD-193" value="1" style="edgeLabel;html=1;align=center;verticalAlign=middle;resizable=0;points=[];" connectable="0" vertex="1" parent="rpGaOk7rnE4ZSk3WpupD-189">
          <mxGeometry x="0.7902" relative="1" as="geometry">
            <mxPoint as="offset" />
          </mxGeometry>
        </mxCell>
        <mxCell id="rpGaOk7rnE4ZSk3WpupD-195" value="*" style="edgeLabel;html=1;align=center;verticalAlign=middle;resizable=0;points=[];" connectable="0" vertex="1" parent="rpGaOk7rnE4ZSk3WpupD-189">
          <mxGeometry x="-0.7348" relative="1" as="geometry">
            <mxPoint as="offset" />
          </mxGeometry>
        </mxCell>
        <mxCell id="rpGaOk7rnE4ZSk3WpupD-203" style="edgeStyle=orthogonalEdgeStyle;rounded=0;orthogonalLoop=1;jettySize=auto;html=1;entryX=0.5;entryY=1;entryDx=0;entryDy=0;" edge="1" parent="WIyWlLk6GJQsqaUBKTNV-1">
          <mxGeometry relative="1" as="geometry">
            <mxPoint x="-1920" y="192" as="sourcePoint" />
            <mxPoint x="-1920" y="72" as="targetPoint" />
          </mxGeometry>
        </mxCell>
        <mxCell id="rpGaOk7rnE4ZSk3WpupD-207" value="to" style="edgeLabel;html=1;align=center;verticalAlign=middle;resizable=0;points=[];" connectable="0" vertex="1" parent="rpGaOk7rnE4ZSk3WpupD-203">
          <mxGeometry x="0.4556" y="1" relative="1" as="geometry">
            <mxPoint y="16" as="offset" />
          </mxGeometry>
        </mxCell>
        <mxCell id="rpGaOk7rnE4ZSk3WpupD-209" value="*" style="edgeLabel;html=1;align=center;verticalAlign=middle;resizable=0;points=[];" connectable="0" vertex="1" parent="rpGaOk7rnE4ZSk3WpupD-203">
          <mxGeometry x="-0.7578" y="1" relative="1" as="geometry">
            <mxPoint as="offset" />
          </mxGeometry>
        </mxCell>
        <mxCell id="rpGaOk7rnE4ZSk3WpupD-210" value="1" style="edgeLabel;html=1;align=center;verticalAlign=middle;resizable=0;points=[];" connectable="0" vertex="1" parent="rpGaOk7rnE4ZSk3WpupD-203">
          <mxGeometry x="0.6911" relative="1" as="geometry">
            <mxPoint as="offset" />
          </mxGeometry>
        </mxCell>
        <mxCell id="rpGaOk7rnE4ZSk3WpupD-205" style="edgeStyle=orthogonalEdgeStyle;rounded=0;orthogonalLoop=1;jettySize=auto;html=1;entryX=0.5;entryY=1;entryDx=0;entryDy=0;" edge="1" parent="WIyWlLk6GJQsqaUBKTNV-1" source="rpGaOk7rnE4ZSk3WpupD-201" target="rpGaOk7rnE4ZSk3WpupD-173">
          <mxGeometry relative="1" as="geometry" />
        </mxCell>
        <mxCell id="rpGaOk7rnE4ZSk3WpupD-206" value="from" style="edgeLabel;html=1;align=center;verticalAlign=middle;resizable=0;points=[];" connectable="0" vertex="1" parent="rpGaOk7rnE4ZSk3WpupD-205">
          <mxGeometry x="0.4" y="1" relative="1" as="geometry">
            <mxPoint x="1" y="15" as="offset" />
          </mxGeometry>
        </mxCell>
        <mxCell id="rpGaOk7rnE4ZSk3WpupD-208" value="*" style="edgeLabel;html=1;align=center;verticalAlign=middle;resizable=0;points=[];" connectable="0" vertex="1" parent="rpGaOk7rnE4ZSk3WpupD-205">
          <mxGeometry x="-0.8133" y="1" relative="1" as="geometry">
            <mxPoint as="offset" />
          </mxGeometry>
        </mxCell>
        <mxCell id="rpGaOk7rnE4ZSk3WpupD-211" value="1" style="edgeLabel;html=1;align=center;verticalAlign=middle;resizable=0;points=[];" connectable="0" vertex="1" parent="rpGaOk7rnE4ZSk3WpupD-205">
          <mxGeometry x="0.6533" y="-1" relative="1" as="geometry">
            <mxPoint as="offset" />
          </mxGeometry>
        </mxCell>
        <mxCell id="rpGaOk7rnE4ZSk3WpupD-201" value="UserReport" style="swimlane;fontStyle=0;align=center;verticalAlign=top;childLayout=stackLayout;horizontal=1;startSize=26;horizontalStack=0;resizeParent=1;resizeLast=0;collapsible=1;marginBottom=0;rounded=0;shadow=0;strokeWidth=1;" vertex="1" parent="WIyWlLk6GJQsqaUBKTNV-1">
          <mxGeometry x="-1940" y="190" width="160" height="170" as="geometry">
            <mxRectangle x="550" y="140" width="160" height="26" as="alternateBounds" />
          </mxGeometry>
        </mxCell>
        <mxCell id="rpGaOk7rnE4ZSk3WpupD-212" value="ReportDate" style="text;align=left;verticalAlign=top;spacingLeft=4;spacingRight=4;overflow=hidden;rotatable=0;points=[[0,0.5],[1,0.5]];portConstraint=eastwest;" vertex="1" parent="rpGaOk7rnE4ZSk3WpupD-201">
          <mxGeometry y="26" width="160" height="26" as="geometry" />
        </mxCell>
        <mxCell id="rpGaOk7rnE4ZSk3WpupD-213" value="BanStartDate" style="text;align=left;verticalAlign=top;spacingLeft=4;spacingRight=4;overflow=hidden;rotatable=0;points=[[0,0.5],[1,0.5]];portConstraint=eastwest;" vertex="1" parent="rpGaOk7rnE4ZSk3WpupD-201">
          <mxGeometry y="52" width="160" height="26" as="geometry" />
        </mxCell>
        <mxCell id="rpGaOk7rnE4ZSk3WpupD-214" value="Status : PendingStatus" style="text;align=left;verticalAlign=top;spacingLeft=4;spacingRight=4;overflow=hidden;rotatable=0;points=[[0,0.5],[1,0.5]];portConstraint=eastwest;" vertex="1" parent="rpGaOk7rnE4ZSk3WpupD-201">
          <mxGeometry y="78" width="160" height="26" as="geometry" />
        </mxCell>
        <mxCell id="rpGaOk7rnE4ZSk3WpupD-202" value="" style="line;html=1;strokeWidth=1;align=left;verticalAlign=middle;spacingTop=-1;spacingLeft=3;spacingRight=3;rotatable=0;labelPosition=right;points=[];portConstraint=eastwest;" vertex="1" parent="rpGaOk7rnE4ZSk3WpupD-201">
          <mxGeometry y="104" width="160" height="8" as="geometry" />
        </mxCell>
      </root>
    </mxGraphModel>
  </diagram>
</mxfile>
